<mxfile host="Electron" modified="2023-07-03T20:43:10.841Z" agent="Mozilla/5.0 (Macintosh; Intel Mac OS X 10_15_7) AppleWebKit/537.36 (KHTML, like Gecko) draw.io/21.5.0 Chrome/112.0.5615.204 Electron/24.5.1 Safari/537.36" etag="WzNCdVdc7TZnQm2TKMGc" version="21.5.0" type="device">
  <diagram name="Overhead Coordinates" id="7vvUfJKuVzk3rOF5DbDs">
    <mxGraphModel dx="596" dy="421" grid="0" gridSize="10" guides="1" tooltips="1" connect="1" arrows="1" fold="1" page="1" pageScale="1" pageWidth="850" pageHeight="1100" math="1" shadow="0">
      <root>
        <mxCell id="0" />
        <mxCell id="1" parent="0" />
        <mxCell id="zFDbxtlzNtu9064vAHm8-2" value="" style="endArrow=classic;html=1;rounded=0;" edge="1" parent="1">
          <mxGeometry width="50" height="50" relative="1" as="geometry">
            <mxPoint x="120" y="480" as="sourcePoint" />
            <mxPoint x="120" y="360" as="targetPoint" />
          </mxGeometry>
        </mxCell>
        <mxCell id="zFDbxtlzNtu9064vAHm8-3" value="" style="endArrow=classic;html=1;rounded=0;" edge="1" parent="1">
          <mxGeometry width="50" height="50" relative="1" as="geometry">
            <mxPoint x="120" y="480" as="sourcePoint" />
            <mxPoint x="240" y="480" as="targetPoint" />
          </mxGeometry>
        </mxCell>
        <mxCell id="zFDbxtlzNtu9064vAHm8-4" value="\(X (\hat{I})\)" style="text;html=1;align=center;verticalAlign=middle;resizable=0;points=[];autosize=1;strokeColor=none;fillColor=none;" vertex="1" parent="1">
          <mxGeometry x="220" y="460" width="90" height="30" as="geometry" />
        </mxCell>
        <mxCell id="zFDbxtlzNtu9064vAHm8-5" value="\(Y (\hat{J})\)" style="text;html=1;align=center;verticalAlign=middle;resizable=0;points=[];autosize=1;strokeColor=none;fillColor=none;" vertex="1" parent="1">
          <mxGeometry x="90" y="330" width="90" height="30" as="geometry" />
        </mxCell>
        <mxCell id="zFDbxtlzNtu9064vAHm8-15" value="" style="group" vertex="1" connectable="0" parent="1">
          <mxGeometry x="149.99758664047835" y="279.99758664047835" width="270.7724133595217" height="259.5448267190434" as="geometry" />
        </mxCell>
        <mxCell id="zFDbxtlzNtu9064vAHm8-1" value="" style="shape=image;verticalLabelPosition=bottom;labelBackgroundColor=default;verticalAlign=top;aspect=fixed;imageAspect=0;image=data:image/png,iVBORw0KGgoAAAANSUhEUgAAAlgAAAJYCAYAAAC+ZpjcAAAACXBIWXMAAAsTAAALEwEAmpwYAAAgAElEQVR4XuzdeZgb133m++8pAI0G0PvK5k42KVnianGRZMuy9lw7jh1Lsh0v8U2ciSe+fpKxH0+SuZNlkslkJplk4pvkeiaTJ5kskziTyHYWTxI7tmPlxpZNk7JkapcsiuLO3rvZGxqoOvePQqHRRTQaa7PZej/Pg6fBOlVoECAKL8859TsgIiIiIiIiIiIiIiIiIiIiIiIiIiIiIiIiIiIiIiIiIiIiIiIiIiIiIiIiIiIiIiIiIiIiIiIiIiIiIiIiIiIiIiIiIiIiIiIiIiIiIiIiIiIiIiIiIiIiIiIiIiIiIiIiIiIiIiIiIiIiIiIiIiIiIiIiIiIiIiIiIiIiIiIiIiIiIiIiIiIiIiIiIiIiIiIiIiIiIiIiIiIiIiIiIiIiIiIiIiIiIiIiIiIiIiIiIiIiIiIiIiIiIiIiIiIiIiIiIiIiIiIiIiIiIiIiIiIiIiIiIiIiIiIiIiIiIiIiIiIiIiIiIiIiIiIiIiKyppnwBhGRtWbvoUODUSKvs7DFGrYYQ8RizwBnsfbFkydOvAjY8HEiIteKApaIrEl7jxzZYqx5L5b3GcOBcHsha3nOwf6Zi/fppx9//OVwu4jIalPAEpE1Zc+eu1qiidmfs/AJIAJ4gBPabQmLtQZj/Lvmv9mF2M8+9dTXxsP7iYisFgUsEVkz9h858n3W478bYwbCbZWwMIrlJ556/FufDreJiKyGSHiDiMi1sO/wrR818McGUhhT03/+DDQbw8N9AxvdoYsX/jncLiLSaApYInKtmX2HjvyiMfwqWDCm5HBgmQyAMeaeDRs3dV++cP6LaBK8iKwiBSwRuaYOHDr64xjzK/6fauu5WsbRvoGNZujihUdD20VEGqYRJzMRkbIcOHz4qMX5OthIg8JVwHqY73n6xLEvhRtERBqhkSc0EZFlHTp0qH3BRE4aazfXaVhwedZ61pjxJuvue/zxxy+Gm0VE6q2xJzURkWUsONFPGNja8HAFYIxjoDtD9GfDTSIijaAeLBFZdfv23dFJ08IZY0ixuuehDBGz8+SxY+fCDSIi9dT4/zmKiIQ1pT9mDC2sbrgCiBnX+zfhjSIi9aaAJSKrzQA/au21KZtg4Yf27NnTFN4uIlJPClgisqr23nLrPmPMgDGr3nuVY1LR5pY3hreKiNSTApaIrCpj7FvC21abXQPPQUTWNwUsEVlVjrH3Yu01GR70WQv23vBWEZF6ioY3iIg0krVmO9dseBByBU23h7eKiNSTerBEZFVZw4bwtmugSxPdRaSRFLBEZNUcOnQoaaA1vP1aMMlkf3ibiEi9KGCJyKrJRKNd4W3XShS6w9tEROpFAUtERESkzhSwREREROpMAUtERESkzhSwROS6ce7VV7gyORHeLCKy5qgOloisedNXprhw5gzzc7OMDQ/T07+B3g0DxGKx8K4iImuCApaIrFnTV6a4fP48M9NXlmwfuXyJsaHLdPX20TswQCymklYisrYoYInImlMYrAzwJuB+4OeBZuAjwCPWcm7oMmPDQ3T29tG3YYBYk4KWiKwNClgismZMT01x+cJisLoTeAgYALzcPmngttztGPAZazkzdJnx4SE6e3vp27BRQUtErjkFLBG55sLB6s3Ag/jBKuAAMSADLABx/JB1K/At/KD16tAQ48PDdPb00jegoCUi144ClohcM36wOsfM9PSywapQE37AmscPWAAGP2QdBU7gDx2eHh5ibGSYrp5eegcGaGoK9hYRWR0KWCKy6qanJnM9VtM4rBysAs3ADH7Aag+1GeAIcBh4HD9ovZILWp09PfRt2EhTXEFLRFaHApaIrBbz8tNPvwlj8sHqLvxgtWHpfstK5H7OLdm6lMEPWYeAb+MHrVPDw4yPjNDZ3UPfgIKWiDSeApaINJrBvwjwF2ZmZm53gLvxg1X/kt1Wlsr9LBWwAgY/ZN0CPIkftL47Msz4qB+0EsnE5lyTiEjdKWCJSKPkgxVwuwM2GAqsNFgFWnI/55dsLc0ArwcOAt/BD1ovjQwD/DXwx8AvA9/NHyAiUgcKWCLSCHfjB5fbHbB3Ae8EU22wCrTlflYSsAIGP2QdAE4Cj4DzIvwQ8EHgfwL/Dng1f4CISA0i4Q0iIjXYC/wB8B8c2Hw3mI+DuYvF3qdavAQ8jx+UdoTaymXw53zdDdwEDIEZgYMGPoo/d/4E5Y1CiogsSwFLROphE/BJ4L8DN9wK/CSYu6lPsALI4o/pDQE7gZuXNlfM4A9V3gXsBk6DMwVvMPBjgIs/Rz6bP0BEpAImvEFEpAJtwE8Z+ISF5huBHwRuCO1UC4ufdP4IuFSw/V/i90I5Bdtq4QH/H/C/wI6BMXDOws8Af4ofuEREyqaAJSLVaAI+bOAXLHQPgP0AmMPU96RyFj9YnQQcx2FwcJB4PM6LL7zAQibDduCH8Yf66mUB+Hvgc2Dn/KD1lIWfAr6In/dERFZUz3OhiKx/BnjIwK9YGGwD+x4w91Df+QZp4DPA5/F7ljZv3syePXtIJpMAZDIZnnvuOU6dOoW1ltvxZ6t3Bg9QB1eAvwT+Hqzr/72/gh+0vr1kRxGRIhSwRKRcdwC/DtwaB/t2MN+HX129np4Efg9/rlVbWxsHDx6kp6cntJdvamqKp556isuXL5MEPgDcS31PbMPA/wK+Rr776tPAzwKv5HcSEQmp53lIRNan1wG/ArzDAXsfmIeBjtBOtZrAHw78OhCJRLj55pu54YYbcJyrZ1lZu3Sk7ty5czz5xBPMp9PchD8/a+OSPWr3Cv5krJOAgYyF/xe/FMXokh1FRFDAEpHlbcCvDfVhwDkKvI/6BxeLP/b2J8Yway0DAwPccssttLRUdv1hOp3m5MmTnDp1iijwEPAO6l/s7yTwJ2BP+/Ozpiz8R+C3UGkHESmggCUiYTHgEwZ+zkLyBvwrA28M7VQPZ4HfBV4AEs3N3HLoEFu3bg3tdXWPVaFw2/DwMMePH+fKlStsxq+5UM+rGsEPhV8D/gzsiB+0zlv4OP7UseWfrIi8ZihgiUihNxr4XQs394H9QTBHqf+JYgH4LH5dKw/YvXs3Bw8epKmpacl+4fBUrmw2y7PPPsuzzzyDtZYH8HvfgsWi6yWDf2nhI/hXHOJfgPhRND9L5DWv3udNEbk+deLPs/pwBOw7wDyIX4uh3p7Gr0Z6Gejs6ODW225bdhJ7rSYnJzn2zW8yNDxMlzH8C2s5HN6pDgrnjxmYt/7Q6ifxM5iIvAYpYIm8thngBwz8poXem4AfBTaHdqqHDP7ld38LRCMRDr7+9dx0001LJrFX22NV6jjP83jppZd44oknyGQyvBn4EPXvzQJ/MenfA3vZHzZ82vrz174R3k9E1j8FLJHXrl78jpe3pMB+EH/NwEacFF7FnwV+Fujr7eVNd95JW1uwdHNppcJTqbaw2dlZvv71r3PhwgX6jeFfWcuu8E51sIBfP+uvyNfP+m3gJ/HLe4nIa0QjzqUisvYdNfA5C5vuwC/SWV7cqYzF77H6NOAZw+tvuYX9+/fne61KBaRSbdWy1vLcc89x4vhxrOfxHvwrDa8uBFG788B/A170/3gMeBd+xhSR1wAFLJHXFoO/xM1vOxD9EJj7chvrbQz4FPAU0NHezt333JOfa1VteKrXcePj4zz66KOMj49zM/DjQPeSPerDBf4EP2QaGLXwHvyqFCKyzjXivCoia1MEvyrCh7rA/mswjRgiA3gW+A1jmLKWvXv3cvToUaLRelek8oXDU6FSbdlsluPHj/PMM8/QYgwft5Z94Z3q5DHgv4Jd8Dv1fgr4L6FdRGSdUcASee34JPCxvfgFm1pDjfVg8csW/CEQjcW497772L59e8mgU0qp40q1VeLMmTP841e+QjaT4YeBB2jMifEc8GtgL/oP/0P4899EZJ1qxHlERNae9wKf3gX8Ao0pv5DBX0Pwq/jlF97y1rfS2bn88sulAlKptlKqOc5ay8TEBF/8wheYmJzkfvyrDOu5eHVgFPg34E2BZ+Ew/oWHIrIOKWCJrH89Bl5IQOcnwSwfeao3hr8K9HeBwZ07ufe++64qGhqoJgRB6eOMWf5Uttxx4e3pdJovf/nLnDlzhpuBT9CYXr4XgJ8HLJwAbgeyS/cQkfWgEf9JE5G15VeAuz4M5nXhljo4A/y8MVwAbr/9dt58113EYjGMMUVvjuNcdQvvU+wWPmal4wLh7cvdYrEYu3fvxnVdnrp0iW8awy1AZSsirqwHmAFe8pd1PA08uWQHEVkXlv9vn4isB70GzuyA5v9E/T/wZ4BfNIZZY3jr934vg4OD+bZwD1GhwgAUVuq4QDn7hFVyzHPPPcdXvvIVuoB/by294R1qNAd8BLw5+K6Fm/EvOBSRdUQ9WCLr278F7vlhYEu4pUZnyYUrx+Ht73gHg4ODS3qEwr1N9e5xKjwuvC24Ff7OSp5LX18f7e3tPP3yy3zLGG4DkvlnWLsYMAfmOb86xEngudAuInKdW/6/kSJyvWszcLYfWv8fMPUsplkYrr7/ne9kx44dJXuISrWV0ojjSrWFPffcc3zxi1+kH/j3+As21ssk8BGwWXgCf8J7+U9MRNY89WCJrF8fBd7+PjCLA3e1uwD8Qi5cPfTww2zfvh1YvhdpuVupY4IepnCv00o9T6Ues/Cxw7fwPsGtr6+PtrY2vvPyyzwOvBGIUx/NwBiYUzAA/BP+fCwRWScUsETWr0+loP/HwdTrg54GfgkYNYZ3vfvd7Nix46qwUiqwVBt0jGnsEGKp59Hf308qleI7p05xBriD+nX9bwS+4N/NAn9T2CYi17fGlFYWkWttF/D6o/jzferlj/ELZt715jezY8eOcHM+0BRTamguaCt1fDGlHrOU5Y5b7nkcPHiQCxcu8OQzz/B3wPcuaa3eALAd7KvwkIWP4JcTE5F1QAFLZH16F8Bt4a01OAt8Cdi2bRtvfOMbl4SQ5QILLB9aChVrK/WYxfYPlDqunOcSFhzzwAMPcPqVV/iL2VnuAlJL9qre7WBOQwdwL/kOLRG53tVz3quIrB3vSYKt59p6n8n9vPfee4lEIkuG0sJDbIW3SCRy1S28T7Fb+JjC4wqH8IJbILy98Bb+HeH2YvsGvzuRSPCmO+9kDviH/G+rXUEIfvfiXRG53ilgiaw/g8CBI2Dq1UU9A3wL2LZ1K1u2bLkqhFQbWoqFp2K38PHFbuHHW+kxVzom/NyNMRw4cIDmeJxHqd8lfwPAVrAGHkSjCiLrhj7MIuvPveBf918vx/ErYe7dtw/Hqfz/ZbUO2xVrK/WYxfaH0seU8zyampq46eabeeKJJzgDbAvvUKUjYM5AO3AIOBZuF5HrjwKWyPpzF/jlwevlG/jBY+/evRUFrHJCSzGlglApyx1XzvMo1lbs8fbs2cMTTzzBN6hfwNoDfNa/excKWCLrggKWyPpiDNy9hfotVDyDX2p8x44dtLW15bcXCx9h5YaWsGLHlVJOgAor53kUs3PnTpKJBI/NzfEeqEvJht1ABKwLdwO/Gm4XkeuPApbI+rLbwoY94a01CIYH9+/fv2LvVbWhpdRxpdoCxYLVSscVO6aU4PGi0Sg379nDiRMn6jZMGAd2g3kB3mT9yhoq1yBynVPAEllf7oLGDQ+uFEpWag+rpucJVg5PxZQ6plRboPA57tu3jxMnTvAY9QlY4A8TPu8veXgY/2UXkeuYApbI+nII4Ibw1ioFw4O7Bgdpb28PN5cMJqXaAsWCVbXHLacRIW5wcJBUMsk35+b4AWvrMkxY8J7dggKWyHVPAUtkfdnfArajPlODeJzc8OCBA0uGBxsRWkopdVypNij+HFc6BoofF3Ach7379nHs2DHOAVvCO1Rh6+Ld/Yt3ReR6pYAlsn44BvZvhxLRoDLfzv3cs2fPksBRLHzUGlqKqSbIlfM8iil1XLG2m266iWPHjvFt6hOwuoAk2FkFLJF1QQFLZP3YaSFZ0BNSExf4jjFsHBigq6sr3FyWYsEkUKotUCxYrXRcsWNKqSbEAdxwww1Eo1G+nc3yjnBjFQywDczzsN/6RaC98D4icv1QwBJZP/bDkqGmmrwIzFjLG/bsWfHqwbBqQ8tK4amYUseUagsUe47lHBePx9m1axcvPP88M9RnbcKtwHP+RPcdwMuhZhG5jihgiawfdQ1YwfBguLhoOeGj2tBS7LjlrGaIg+LH3XzzzTz//PN8B3hDuLEKBe/dPhSwRK5rlf23VETWsv2G+swHAj9gJRIJBgcHy16/r9QtfMxKxxlz9VqAhbfw/uUcs9xxpW6ljtu7d2/+taqHbYt3NQ9L5DqnHiyRdcLAwX6wcX86T01GgLPA4T17iEQi4earGFPZr6ym96lYD1I5Sh1Xqi1Q7DkGx/X09LChv58nLl/Go/b/sRaEYwUskeucApbI+pCysKNevVdP5n6GhwfLUWtoWU6xY0qpJsTBys8jbM/evXzl8mVOAbvCjRVKAL1gh8HvGhOR61ZlZ04RWau2AWwIb63Sc7mfr3vd65ZsL0d4SK7cW3j4rdQtfGyxW/iYWo4rdbvxxhuBxdesVv1gDOxA52eR65p6sETWh20APeGtVXoO6O7uprOzM9y0JhhTWa9UoNLjyunN2rVrFwZ4Hvi+cGMVegELTUAfcCnULCLXCf0PSWR92Ab+l3OtRnK33bt3h5tec8K9W8VuqVSKTZs28RywchxbWUFI3rZ4V0SuNwpYIutDK9RhdjuLQ127dtU6o+i1Y9fu3UwD58MNVXAX77Yt3hWR640Clsj68DLARHhrFZ7P/bzhhnotGb3+Bb199ZiHNb1497uLd0XkeqOAJbI+vAT1mbDzPNDa0kJfX1+4SZYR9PYF4bQWlwADGeBMuE1Erh8KWCLrw3cBt9Yv+Dn8+lc7BwcrnhD+WtbR0UFLS4ufcmtg8UOa9VcqKhgtFJHrja4iFFn7moFuoCN3a8f/7JrczQKTwFMvw4FpMKlcQ6Uu5H5u2rRpyXZZWW9vL6enp8kAsXBjGSx+N+SC/8dngHvJza3LNdtc80TBbSy3TUTWGAUskbWlC3grcBh4HXATFSwvmAU+BESAloJbDP+bOpG7NS9zfxjfhg31qqi1skwmw/z8PPPz86TT6fzPTCZDNBolFosRi8WW3I/FYjQ3NxOPx8MPd80MDAzwyiuvcBqYz93mcrdi96/gJ6Mr+POuZgGPvHfnbitxgVeAZ/E7vx4DvoT/cCJyDSlgiVx7ceBH8L9Q38Ti0L11HMcUFsmExdIBhay1V92mreWKtWAtXhn1nAC+N/ezngHLWsvExASjo6OMjY0xOjqav01NTeF5BbGiQvF4nPb2dtrb22lra8vfb29vp7u7m5aWlvAhDbN161Yee+wxvgX8dbhxGY4xkHs/HWOIFCkDUSj8HltrI57nDXqetwt4e263NH7I+p/AZ1iS20RktShgiVw7DvAe4D/h1zyy0WjURKNRotEojuNUM8q3rKBoZvDlXHh/YWEB13V5JrdvLQFrZmaGc+fOcebMGc6ePcuFCxdw3cZMJ0qn0wwNDTE0NBRuAvzFqvv7++nr61tya0TP19atfkdj8Bo2NTURiUSWBKXw/ToxAK7rks1myWazcdd13wa8DXgc+Engq4UHiEjjKWCJXBuDwJ8AtxljbFNTE01NTaaOX7pXKfXF7jgOMzMzjAJdnZ0VBZB0Os2pU6d48cUXOXPmDGNjY+Fdrpm5uTlOnz7N6dOnl2xvb29n48aNbNmyhc2bN7Nx48ayFrUuJQil47k/Nzc3LzaugkgkQiQSIR6PY60lnU6zsLBwC/CPwOeAH8WfsyUiq0ABS2T1vRf4XaClqamJeDze0GBVjqBHa94Y+ru7Q61Xm5yc5MUXX+SFF17g9OnTDeuhapTJyUkmJyd57jm/clUkEmHDhg1s2bKFLVu2sG3bNlKpVOio0lKpFBHHyQ95WmuLhtnVYIyhubmZpqYmMz8/TzabfRA4iv9v72uh3UWkARSwRFZPHPgU8CPGGC+RSBCNro2PYBAKMtaSTCZDrb5sNsuzzz7LE088cVWP0PXOdV3Onz/P+fPn+eY3v4kxhv7+fnbu3MnOnTvZtm1bWe9VrKkJ5ucB/zHLOaaRHMchmUyysLDA/Pz8JuCfgJ/DH5Yub2KeiFTl2n76RV472oG/BO6ORqMkEgnnWvVuFJPJZIjhV7dMJBJL2oaGhvj2t7/NyZMnmZubW9K2XllruXTpEpcuXeKxxx4jGo2yZcsWBgcH2blzJxs2bCjaO9Xc3JwPWNls9poHrEBuPpiZm5vD87xfBnYCP4Z/4amINMDa+PSLrG8DwBeA/U1NTas+N2clruviui77gSfwA1Y2m+Xpp5/m8ccf59y5c+FDXnOy2SyvvPIKr7zyCgDJZJIdO3YwODjIDTfckB9OTCQSTE5MsBm4kMlg4/GiQexaiEQipFIpMzc3Rzab/RGgH/8iC5V0EGmAtfHJF1m/bgD+AdgWj8crmjxei2w2Szqdvmpie+GXfXA/nU5jgE8Avw7s37+f+fl5pqcLVsUrQ3A1YiaTwfO8/LBjUGIiqF9V62TyWmWzWTKZDNlsFmvtkucZiUTyz7PcYGSMYfPmzdx000189atf5cyrr/Jx4DdybU1NTcDSqzgDhdsSiQSOszqLa8zNzZHJZAC+iX+14ejSPUSkVuWdQUSkGkfwe666chOOw+0Nk5tzE968rA/iX9b474C2tray60dZa5mfn2dmZoaFhfIKijuOQ3NzM4lEYtUCZzqdZm5ujvn5+bLqbgXBKJVKVdTjOD4+ztzcHH8I/BGV1UZIJpOrOqQ4Pz8fvGcvAA+gtQ9F6mr1Ps0iry3fg39pfCKRSBCLVbN4SvWCEPHbQB/+RJsF/DlWmdB9gF34BZPAD0DlWFhYYGJiIj/XqK+vj1QqRTKZJBaL4TgO1lpc1yWTyTA7O8vMzAxXrlxhdnaW2dlZIpEIra2ty06sr4W1ltnZWaanp/NXOSYSCVpaWkilUgTvSxBqPM/LP8/p6WnGxsYYGxsjFovR0dFR1nsYvHZzwIeBu/BPsk341fRjoftR4ATwayy+Z6ulubkZYwzpdPpG4Bh+yHoqtJuIVEkBS6T+3gX8mTHGSSQSZjV7JQLBl3U3fjd18IVeSjARp5yhsZmZGSYnJ4lEImzfvp2urq6ixxljcByHWCxGMpmkp6cH8IeoxsbGGBkZYWJigunpadrb2+vWozU3N8fU1BSu6xKLxejv76ezs7Nkb1RQR6q5uZmuri42b97M6Ogo586dY2RkhI6OjqsuAAgLXoNZ/Nf+piWtxfmvyNKhw9USj8dxHIe5ubl+/PIN34M/bCgiNVr9M7/I+vZWcuEqmUyaazHfyPM8v1eJyj7gQcBaqQdrbm6OyclJEokEu3fvLqtnJyyRSLBp0yYGBgYYHh7m0qVLjI6OkkqlaGtrKxrWymGtZXJyktnZWWKxGJs2baKnp6eqx3Mch97eXtra2njppZeYmJjAcZySITB47SqZNd6f+5lOp2lqaqrqudYiN9/MzM7OtgJfBO5APVkiNSt9JhWRStwJfO5ah6vZ2VkL/tBgJWZyP0t9wQcBJhaLVR2uCjmOQ39/P3v27KGjo8OvJj86WlVvjud5jIyMMDs7S3d3N3v27KG3t7fk36cc8Xic3bt34zgOk5OT4eYlgt8VvJblSLLYuzg7O1vV371W0WiUZDJp8NcE/zL+qLGI1EABS6Q+DgF/CzRdq3CVm3NkPc8zgK00YJXTgzU7O4vneWzYsKHmcFUoGo0yODjIli1bWFhYYHR0tKI5SZ7nMTo6SjabZfv27Wzfvr2uVyvG43H6+vrIZrMlLx6opgcLoMUv+jnsuu41qzWWq89m8LP5l4FNoV1EpALLn0lFpFw345diSK2RcPWzgFl+IKu4cgJWcKVgV1dXqKU++vr62L59OwsLCyv2FhUaHx8nm82yc+dOustY6qcawd+51NWSwWtXSQ8WQLM/VW4U+KNsNsvsbKURrT5isVgwT20bfsgKpoiJSIWWP5OKSDl24H8RdV2rCe3B1XKu6xrgl4HfAX9dnkqUM8nddV0cx2loOYHu7m76+/uZm5srK2hMT0+TTqfZuHEjHR0d4ea6CeZelVp3sXCSeyWaAAMtwL8APpvNZq9ZT1ZufUyA1+GXGWlbuoeIlEMBS6R6A/jhauBalGIAf2hsZmbG5r70fwt/nbkkVBewjDElA1ZQeqHR84Q2bdpEPB5fsdiptZbp6WlSqRQbNmwIN9dVYUHS5VQ7RJh7r5L4FTXeD3whKBnR6Ne6mHg8HtRtOwT8DVD68kkRucryZwoRKaUL+BKws7m5+ZqEK9d1mZmZ8XLDgr8AfBx/Lk8S/F6RSswATolwBf4QUlBctJGMMWzYsIGVenKCOWEDAwPhproLetNK9d5V24NVELAA0sA7gT/NZrPMzMzYSuaj1UvBv+s3A3/BypU+RKSAApZIdT4C7IlGo6taoT2QyWSYmZmx1to08DDwi0DwLZwCWL7iU3GzgCnROwOLC0GPjIyEWuovGO4rNecpWA6ora3xo1jDw8MYY0rW0qq2B6sJsP5bFrwB88APAj+d66X0stnVX5e5oO7X2/BLkIhImUqfTUVkOY+BX5xytc3Pzwe9OueANwCfXbpH9T1YpYYHwe+9icfjDA8Pk06nw811FY1GiUajwZp5RWWz2XxF8kaanZ1lYmKC5ubmku95NWUaYMlwbuFQnAX+M/B2a+3s7OysLRU2G6Wgx+4bhdtFpDQFLJHqPAbMrWavguu6TE9PB1+yXwcOA08u3QuoYQ5WqflFgfb2dgBOnTpVUSmFanieVzI8GWNKTjqvB9d1OXXqVNk9ZY4xFfdgFbxXxdYM+t/AbcDpYN3HRr/uhVzXtcB3gKFwm4gsb+WzqYgUkwYedV2XRocsz/PyCyp7nufiz7e6h+W/8CoOWA9+mgEAACAASURBVMG6hKXCTCAajdLe3s7s7GxDQ1Y6ncbzvJI9RpFIhEwm07D3wHVdvvvd75JOp+no6Cj5XALGceodsACewZ9w/vtB0E6n0w2fAL+wsIC11uBXeBeRCihgiVTvS+APH01NTTEzM8P8/DyZTKYuoSMIVgW9Vo8BB/DnWxUdK9p/662be/o2PAiVBaxyamAVSiaTtLW1MTk5yYsvvlhynlS1hob8/Fhq/b9EIoG1luHh4XBTzdLpNC+88ALT09N0dHSUnHtVyHGcqocId95w488dOHz46JLGReP4ZRzuAU6l0+m6Bi3XdVlYWGBubo6ZmRmmpqYKL2b4UuG+IrKy5S+HEZGV/B5wEbgbuMd13V2Fw1XGGBuJRIzjODiOgzH+wsdBL1Fhb1FQ+sDz/HUEXdcNioYCPA78EvB5/Hk5S+w9dGjQmMhDBvMeXHtLPNFsobEBC6ClpQVjDJOTkzz77LNs2bKlbkU+p6amGB4eJhaLlVz7r7m5mWg0yqVLl2hrayOVSoV3qcrQ0BDnz5/HWktnZ2fJkBfmVNGDFcyXi0QiP2xxfuTA4aMXrTGPWLzPPnX8+NdYvIAB4Kv4xW0/aK39t+l0ekc6ncZxHBuNRk0kEsn/Owv/Gwt+ep6H53lYa3FdNxgGLOy+9ICT+L/rq8A/FbSJSBlWHg8QkXJ1APvxe5kO5n7uo/L55gBn8avDP5L7WRiszIEjR24G5yGsfbeFPYBnsMYBM3L5EmfPnuVn8J9AOb4F/DqQSqXyc6zKtbCwwMTEBNlslkQiwcDAAJ2dneHdyjY6OsqZM2cA6O3tXXFYLpvNMjIyguM4bN++veLnH7DWMj4+zsWLF5mfnycWi9HZ2VmyLEMxY2NjzM/P82dA6We+6G+APwFuvPFGki2tWGOwmKz1/xM8arCfxTqf7WxN/OOjjz5aOB4aBd4NvB24D6gm4U7jz7F6suDnM1R+MaSIFFDAEmmsKLAdf123zblbJ/4l+c34V43NA8O52xBwHHiZUKjad8uttxjjPYQx7wYGrbVexGCMtcYp2PXSpUucP3+eXwJuzG8t7TP4hY7Ar+SdSqUq6rWxuYKf09PTWGtpamqis7OTrq4uksnlphUtNTU1xeXLl5mamiIajdLZ2Vl2fbGFhQXGx8dxXZeOjg76+/tpaWkJ73YVay0zMzOMj48zPj5OJpPBcRxaWlpIpVJlzUkLuLl1BK9cuYK1lj8gVy+jDF8Efh/YtWvXkoBojcGzYI3jhy3DFeBzWOdzUy3N/3D60UcLC5I5+AF/P/4SN725m4P/b2wef+7gMP4VqIW32se0RWSJ8s8eIrLanIOHD9/u4jxo/F6KzYDrYCMOFrPMvJsLFy5w8eJFfhXYEW5cxm8D/4w/gT2YMB6JREilUiSTybKHDj3PY3p6mrm5ufzVfY7j5B8nFosRjUbzV/8F6+5NT0+TzWYxxpBKpWhtba0o3ID/u69cuZKvfh6LxWhpaSGZTBKJRIhEIvkh2KBKelCoFPy/bzKZzA99lsNav+jq7OzsVWUr/ivlL+T3KP7+O3fuXLb3zwLWOHiQtZioMcx5Hp8HPmMy83938uTJSqd+iUgDVdb3LSINddddd0XHpmbvxJiHMPZdHvQ6kDXYqLEWB7viqFMQGJafuXS1y7mfe/bswfM8hoeHGR4eZmpqiitXrpBIJEilUiv2KDmOQ1tbG21tbaTT6fyk/+npaa5cuRLeHfCPCXrNkslk2eEmzHEc2tvbaW1tZW5ujnQ6zeTkJOPj4+FdAX//oFBsc3NzRQVjg8ngc3Nz+de7ra2N7u5uTp8+7Qev0DGlBO9VqYsjDGCshwNRi8GzJBzjPGjh3cTiC/sPH/mCwfmMyaY//+STT06EjxeR1aWAJXKN7dq1K57o6L4X7EPj07MP4dAONutYG3WwGGxFn9Og56iSgDXKYmFP8NcCHBgYYGxsjKGhoXxvTzweJ5VKlXVFXTweXzJB3XXd/ORq8AOO4zgrzrGqVNBjFkx4r9fvDYYAZ2dn87188Xicnp4eurq68gFtaGiImZkZll/g52pBtCsVsAoZrD+/y7rRXM9Wk8W81cO+3UabsvsOH/kqhkei2exfPfHEE/W/xFJEVlTRiVtE6uPQoUPJrOP8H9aah4G3g02BzRqIOrleivAx5aq0B8vDv/4/FZpz5TgOPT099PT0cOXKFYaGhpiYmCCdTlc1fBgM0622Wn5vMAQ4NzeXL1kQvC7d3d1F53nF43F/Xle4oYRyerCWE/RsAdEIBhei1jj3WMt9WSf6O/uPHP268XiEpsjnvvONb5wPHS4iDVL1SVxEKnPrrbe2zWbt24CHF7BvNdbEDWSN9aIOVNxTtZxKA9YQfsgq1SvV2tpKa2sr6XSa4eFhRkZG8sOHyWSSVCpV8dV2a1kwR6twCLC1tZWenh46OjpKhsrgdbwU2l5KLQFrqXzPVgTAwxjP443WmDvIuL954MjRE9byiDX2s08dP35q6bEiUk/r54wosga97ujR7rhn3uHhPTzn2vuNIerPqSJqrItpwGfQ8zwM5T/w2dzP4eFh4vE4nZ2dy85HisfjbN68mY0bNzI6OpofDpuZmalo+HAt8jwvH6qC9Q/j8Tjd3d10d3cv+5qEBcOiwby2clQ6RFguB4uDdax/JSKe5RCYQ8aa/7z/8NGnMebTdj72O0899bVKOtxEpAzlnoNFpAJ79uxpiiRS/wGPj1lszMG4xnqRevZUFWPxv6SbKP8S4b7cbQg4d+4c586dI5lM0tnZSWdnZ9FCn47j0NvbS29vL1NTUwwNDTE5OUk6nSYajVY8Yd3z/DUHy92/Xqy1pNNpZmdnlwwBBqGqtbU1dMTKgjlwI6HtpQSvsFvngBUomCDvAHgYPMweC79smhc+cfDIkfuePH682LqWIlKlhp3oRV7LnETyt4EfjWCNsR6m/JqTVfEwQXFK1/Vs5OpItLxtwG78gNXZ2ZmfczQ7O8v58+dXDFuFVw0ODQ0xMjLC5OQkU1NTyw4fBnOb5ufn82sOgj/RPpFIkEgkrjqmUBCMFhYWcF0Xay1Bpfzg6sCgJEQxxYYAW1pa6OnpobOzs+QQYJjn+eUhJiYm8gVXASq5jG8xYFkWcKxj8ByIONbix+b6yvVsGWvBI9LhYT6/b98d+9WTJVI/xc8+IlK1A0eOPGit+XDEehQWAK03a4zfE2HxMMYBXrHG/Pn8/Nx7WmA75Xdi5UsKBOEmCDDB5O7z58+vGLbi8ThbtmwpOnzY3NxMKpWiqamJ2dlZrly5kg82yWSSRCKRDyrBLR6P09raumRozvO8/GOWM5zmOH4JiKAMQ9BbFQwBNjU15Xurwn+fUrLZLJOTk0xMTDA1NbUkICaTSWZnZ3l96JhSgt88OT72l5u27/yKNfbdWc/eYYzjOOD3fhpgmdpn1TKAY92Ih9NPfOEXgZ8I7yMi1VHAEqk36/yYsZ51sGUHnHLlhnas9YfSDPAchj8H77MnT5x4Br+74/2xCsIVwBzgFAzPGWNobm6mubk5H7aCHqfCsNXV1UVXV9eS+liRSIS+vj76+vqYnJxkaGgovHAwsViMjRs3XjXfy1rL1NQUIyMj+SsW4/E47e3tuK7L+Pi4PwTa1ERvby9tbW00NzfjOE6+cGk2m2V+fj4fxAqH/8APXV1dXfT09FQ0BDg/P58PVdPT0/ntQYAL1kUMiqcuLTtaWr4Hy3Wdp04c+xTwqUOHDvVkiLzDs7wL49zrQtQYmzX58h31YQAHG3PhYRSwROqmXp9REQFuv/32xEzGnYxgY45/6XxtjMG1YI3xLMbgf2afsJY/j0TN5548duyl8CH4Za267sFfhfoGVv6g/zRwJhKhv78/3LSEtTZfZHN+fn7JFXZdXV10dHQUHZabn5/Pl3no7++nt7d3xWG4+fl5Ll68yNjYWH5bJBJhy5YtdHV1lT1fK5PJMDExwZUrV2hra6Ozs7Ossg3BMjoTExNMTk7mQ5oxhng8ng9V4b+H53lcunSJe4AfW9JyNRd/4b9/xF8fCfgS8MDiHr5Dhw61LzjO2/DMw2DfYox/BaqDjeaGoGtiMWSNg2fs1qePHw+uexCRGtT6uRSRAq9//et73UhsKIKHP3+mcvklUSye9Yf+rDF8w1rziGuzn3vm8cfPhI8J+XEDH7awF2Aj2LvBvBl/Nepi/hUwHI3S19cXblpWeBgxmAfV3t5OV1cX7e3tV4WPakxPT3PmzBmstezatauiobxKeZ7H1NRUPlQF86kcx8kHqng8XjLcWWu5ePEibwA+Fm7MuQB8FXgU7OTiefhR4DeBv8r9uahDhw4lMyb6FvAeNpi3W0iapeU+woesyMPgGoeIm+lTYVKR+lj+LCEi1XAOHDk6bjzbFqlg/VyLwQOscVwLEWut5zjOo3j2kaxj/+qZ48crKasE/mf7EPAhA++30OYAt+D3at3C0ln3HwZmYjF6e3sLtpavWNhyHIfOzk56e3vzVdWrZa3F87yyep4qlclk8kN/hXPDotFoPlSVW6IhcOHCBV4P/N8F2+aBb+AHq+dz2wxcsPAH+LeXg33LtWvXrniqret+HPsgmIcstJn80kqef8lgGVwTcT149eSJbw2G20SkOgpYInW27/DR3zLw0aj1nFK9CUFPlTXG9fz6kFkL/4Cxj3jR6N88841vLI6N1SYBvBP4EHAvQBvYN4O5B9gEfBCwuZpPtQquECysfp5Kpejr66Ozs7Nk789qmZ+fz1/1NzOzuEZyeD5VtS5dvMiN1vILwIv4oerrYNP+OTcL/CXwP/CHBP26DjW66667oqMzM3cZax4y8APW77D0DDiO9SN8sVfeMwYXB2vMh546fuwPwu0iUp1inzcRqcGe22/vimTcE1i7OYqNGSye8a8nDG7+D5P7srVfBuePEhH+7tixY1MFD9UIO4AfMvAxC23gl2h4icWimvUUXr8vFouxd+/eugwdVqJwPlUweR5Wnk9VrUsXL+JZywBwcXHz08DvAX9KZWWyyrJv3x2dpin9k9bwfoPZGm4H/4RvsBjr/0u0ONYzBmvMrz51/Fhhh5uI1EgBS6QBDh482GGj8b+w2PvDbcGHrrBvy2K/hPV+4qnHHw9GjxqtD79zpT3YkEgk6OzsXNyjzoLyC4ODg3R0LDcbrDHGx8c5deoUUNl8qmpdunTJL54K1sLv4PdWPc7St71u9h8++kELv2GgG2utg3+dadCDajEEF0xgDAawfu48iTH/7qkTx/668PFEpHb1n9AgIvRt3va94P1fYJodLI61RPGIYIMij0Swfm+C/1W40xjnx/o3bnIvXzj/tfDjNcAM8ArwcDwep6WlJV8zqlGMMczOztLc3FxWeYTp6WmGh4cZHh5mfHyc+fn5qp/jhQsXmJ+fz9fwCoYAGxGuYLGau+t5BngDcG7JDvVj9h8+8kkwv2qsbY7gmSjW+JPdwzf/35wDeMZYwGB45KkT3/rNgscTkTpRwBKps/2HjnwEwx8aTDxiXeMHqeIMBVW1jXHA3Ns/sLn38sXzX6BBvR0FngVucV33xqDieiM5jsP09DTWWnp6esLNeVeuXOGVV17h4sWLTE9PMz/v19+anp5mZGSE8fHxfC9UOQEpnU5z9uxZ4vE4bW1t4eaGaG5uJpPJBAVNfxO/1Fjd7Tt89PcN5iMOliheGa+G/28ugjX+CLW5tX/Tpu2XL5wveeWiiFROAUukjg4cOfIBML9vsERteV94sBi0MAZrONI/sDF1+eKFL4X3a4B/Bj68sLAQSyaTppzAUi1jDJlMhrm5OZLJJM3NSxeFnpmZ4dVXX+XChQtkMhni8TgdHR10dHTQ2tqaH84LJqiPjIzgeR7Nzc3LXl2YyWR48cUXyWazy9boapR0Oh0ErN8F6r4EzYHDR/8l8HMOlkgVNdf8WYFgMQf7Nm4aHbpw/luhXUSkBo07m4q8xuy95babjON928E2Ra1X9Wxp1zj+9V7Gvv3k8eOfD7fXyRagB3gV+AHgU5FIhO7u7oaGkGw2y8jICNZaOjs7aWlpwfM8JicnuXLlCuCXR2hvb1+23pXruvkq7eHaWy0tLUSjUTKZDFNTU1y8eJGFhQXa29sb3kMXFsw5A+4HvhxqrsmBo0dvsK59ykAsilfTeTyLY60xWfBuOXnixNPhdhGpTk0fTBHJM/sOH/2agdui1nVq/WBlcDwMYyykt588eXKxjkD9HMAvIo6BaeufC1IAjuPYWCxm4vE4iURi2d6harmuu+RKvkBTUxMtLS1X9Wwtx/O8/BWKwdqCYY7j0Nra2tBw5Xlefpke13Xz9zOZTOF6if8a+C8Fh9Vk/+Gjn7bW/kCszGHBUiyQNREL9nMnTxx/ONwuItWp9bMpIsD+W47eg8NXHOtPZK+VNYYsDhjzkyePH/v1cHsdvA34PMBGY5i02Jll1k40gHEcotEosVgs/7OayeaFgiBirSUajdbUc5bJZEin0/nHC8ovxOPxupResNZfIihY6zAIUm42i2evfr8N0Iqh3RjOLg7fbQVqXoZm/+HDN4LzrIN1qhkaLMbF4BnHGmP3fef48WfC7SJSuerPaCKyKMJPYbGRZUJKpXJ1iizYn37Xu971yUceeaQuxSgLPAzwf0ZidPn/zzJZ4AqWKWuZBCatZQrLJJZJz2N+YYGFhYX8AziOQyKRoKWlpaperkgkUtVxxcRisSULTtdLJpNhenqa9Pz8VUGqBUObgXbj0JYLU21AuzG0YPJV1J+3Hn/vZQEexJ/wXhNrzfuMwanLWpc5DuCBsda8D/iZcLuIVE4BS6RGt956a9uca+9z6hSuAg7WeDg9z7/66lH8VVbqpcnA93dibJd/KRngnww6MXQGm0J/mwzkwpflgrV81/MYn5lhdmaGpnic9vb2mnqh1pJsNsvU1FS+Ev0GYxh0IvRjaDOGNkzZVwjtNA4OWA8eog4BC2PeQq5Ce7ipWgYL1npg3oYClkhdrI+zocg1NO9594GJ1DVdke9VAGveQn0D1t0W2nebyr6fY0C3MXRj2GngDiKcsx7/bF0updMMDw3R3tFBMpkMH3pdmZmZYWpqCmstg8bhjU6E7nDarEATsN045pT17gA2AJWuK5l36NChZAYOOdjK3rwyGHCsYf/Bgwc7nnzyyYlwu4hUpu4fUpHXGs/jAOR6AeooeDxj7f5QU60eAqg0YBWz2Ti814nxVidKDJiYmGB8fBxbZF7SWue6LqOjo0xOTtJm4d1OjLc70ZrCVWCX/1ob/DUhqzZvmzYCDg14ffNV32OxTaEmEalC7WdYkdc4x7ABgnlT9WYtfq9HvUSBBzswtrfm688W3WgcPhiJscU4zM3NMTw0tOyVfWvR/Pw8I8PDpNNp9hiHD0RibKrj6zNoHIx/wV5NV+nFnEw/UFaB1UoFj2ld0x9qEpEqKGCJ1MjSwC8kfzWdegasNwHdu03NlSSu0orhISfKm5wInusyMjzMzEwjKkzU1+TkJGNjY0Q9j7c5UR5wotR2feTVmoGt/mv+ZqA31Fw26zkt/p0GhPncY1rHrLyOkYisSAFLpEa2gXMZc30K9bw87mGoz/BgMQY4bCK814nRjmFycpLJycnwbmuCtZbR0VFmZmbYZAw/GIk17HWB/GseAd4RaiqbjdT3Qoqi7Cr8DpHXgMadTURkrXGAh1oxtr9giMnkbvXUZwzvzQ2zzczMMDY2tqbmZbmuy8jICOl0mpuNw0NOjNY6vQrLvZ67/GFCyM2BE5H1rWH/8xaRNecNQP8NBb00cSz73AwWw7gxvOpEqVfBrWbgQSfGP3hZXpifZ3RkhK7u7roU/qxFJpNhbGwM13W5zUS43Sm34EJpLdEID/X1ckMywaTr8snTZ8kUhMoE/kUBZ613P9BJA9YnFJG149qe6URkNT0E+SvaANjiucSAJiz91uNmL1O096VaUeAtTpQjJsJCJsPI8DDZbDa826pJp9OMjoxgXZcHnGjdwlUqEuFjW7dwoLWFRCTChqYm7uzqCO/Gbr/nMAJ8X6hJRNYZBSyR147vS2LsQG540AG6QtXAW6yl39arD8tngDucCPc6UVzXZWhoCNet7+8ox8LCAqOjo0Ss5fudKHvqON/qLT1ddMWWDggcbPXnoxcaXPydClgi61z9zjAispbtAAa3mcUL/JPWFq1Gvtlz69qLFdhvHN7hREk5fimH1RZc0fguJ8a2Ooar1miE2zraw5vZFI/THBoObcHQbQwG7sPvyRKRdap+ZxkRWcvuB5YEi9QyhVFjQFsd17krtMU4zHneNQlY6XSaHmMonOBfDwdaW5Y9kW6Mx8Ob2IaDhQ7glnCbiKwfy50XRGR9uR9ga0G4SJS4qq+zRFstovghK5PJrOpcrIWFBTzPY0cDTnl7UqnwprzepqsrbGxbfA/uL9wuIutL/c82IrLWRAzc12MMqYLBv9gyPVgAKX8VxIbYkQsYo6Oj1vMa93sKBT1m2+vcewX+UOByWqNXjwJuMv7izyhgiaxrClgi698tFjq2hT7upWq0JKxtyDwsgO25YUrXdc1q1ceam50lBgzUce4VQEskQkuREBVoiVz9KseATX5V9zuA5bu/ROS6Vt+zjYisRVcND0LpHqwYEC3RXotODME6iAsLCw0vQjo+Po5nLbuNU/dZ5RvipRfVaYkUP8Xm3osocGeoSUTWieKffhFZTx5wwG4O9d40rZBpkg0MPfeYKBGwBrLpdJrR0VHqPVxorWV8fJy5uTlaMdxRp5pXhQZWCFit0at7sMCf6J7zQOF2EVk/FLBE1rcW4I2bjGPCX/Ur9VAlV2ivxUZjeK8TMy34qW9hYYHLly/belxd6LouU1NTXL50ibm5OXYYhw9EYkvmn9XLhqbSASu1TA9WnzE0+/OwFLBE1qnwOVdE1pc7gWjBlWvA8uvlFWq2rLxTDXqN4QORmPMtz+U71rVZa83E+DhTU1O0tbURj8fLWlYnm82SzWZZWFggnU6TyWQAP8QccqLcaPJrANZd9woBK7bMnC8DbDWOedF6NwMbgQuhXUTkOqeAJbK+3Q2wNdRZXU7gKDVHq16agTudCEeImJPW5QXrMeq6jI/7y/RFIhFisRiRiD+8Z63FWks2m8V1XaznLXmWrRj2mAg3GIdNDbhiMGy5OVaBaInnsNU4vOjXG7sL+PTSVhG53ilgiaxvRyNgexcLuAPlBqzVkwBuNRFuNRFGreUsHhet5ZLrMeHOh3cHIA70Goe+3KT5fvwq6auptchVgoUiJZ7PxsV34SgKWCLrTumzg4hcz6LAkX5jrhqoCv+5mJXmaDVKtzF0E+FgLn/MAZesxz9bl1FrediJ0mEMrWXFxMYxLD/HKhAp8RS7jCEKNusHLBFZZ0qfHUTkenYTkNhQ5GPulBGeYg28irASCWCHcfKBakvB/WspGYnglOihgtJDhAbY4PcsHmJ1OwxFZBVcfeYVkfXiKMCGIl/yV2+5WpTy9lstHmvrhJUqUWA0UCpgAeTCbxOwL9QkIte5tXS+EpH6ugUourhxOX1Thms3TFiMi617odBatNShrlbBe6OFn0XWGQUskfVrlwO2rYZ+qNjayVe4sLYCVhk9WCuVTu1cfG92FW4XkeufApbI+jXYiqnpQ74apRrK5Qes6sNivbXkSkeU4q0wj619sQdrZ+F2Ebn+1XLuFZG1Kwps7wiVZwis1LMSWEuXGbv2OuzBWiFgNQEJf8R2MNwmItc3BSyR9WkzEOkIb80rmruuspYClsfaClipMuZglRNkO4wxRkOEIuuOApbI+tQNkCzegVXWFz+srSHCLKXrSq22lWpgAXhlvHxJDBbaWFv5UURqtPIZQkSuRymovbjSWprkvtZ6sFqiK/fvlRNkC96j5OJdEbneKWCJrE9JgGiZQ4HLaVpDPVhrrUxDax3mYMGSYVgFLJF1RAFLZH1KwfJzqFb+2vc1l71n47mAU2NgrBcD9MZW7h8sJ2DFFv9OqcLtInJ9U8ASWZ+SsPwQ4cpf+754GQFhtaylOlgdseiKVdpBQ4Qir2UKWCLrU8kerHJFgHjZcaxxbO62VgJWOb1XUF4PVnQxp6kHS2QdUcASWZ9W7MFa+avf11xGSGg0N/dzzQSspqbwpqK8lTu51IMlsk4pYImsT7mAVcY3/AqawxuugWCoba2csMoNWLaMcFrwHilgiawjtY4giMjaVJchQoCkteXWJW2YuaYYCRMlGo0xHG0i4nnEXJeI69K8sIBTRpCppw3x8gJWOQreIw0Riqwj9Tj/isja45dpqEMwarerW4HKAlOpFCNtbUylUlxJJcg4EXbn2k8W7gw4WFpm52ibmaVzepqeqSkcr5zp5dWJGsOORHn9esusVLSEhghF1icFLJH1qS6FRgESWJqwLDS4G2s23sT5nl6GOzuYy00ij0Utg1tn2bVllo62DK3JLMmky8KCw5WZKFMzUc5caOaFV1KcSyY519tD1Lr0TEyxcWSUzunp0G+p3c5EM7EyghOU1/FX8B6pB0tkHVHAElmfViw0unzL1XqsxwXTmF6s2eY4p/v7udTVicXQ353mnbdf5M5DYwxunSUaWXn4z1q4OBLn2JMd/OOxbp7+bieXOjvpmJlh+6VLdE9dCR9Stde3tYY3Lcus/NQL3yP1YImsIwpYIutTDEoP7FnKD1kbPI+LkUjZVx6Ww3UcTg0McLavFwvcdmCC9771IvtuuEKZHUR5xsDG3jTvvP8y77z/MpdG4jzyxQ3876/28mRqkK7paW48c5ZkOh0+tCKpSIRDlQSs8IYiCt6jenQ4isgaoYAlsj5FoPQXfKm2sDiWfutyqU69WGOtrTy/bQtzsSYO753kww+fY/f2mfBuVdvQk+bH3/8q73/bBf7sbwf47Jf6+dZNN7L94iW2Dw37XV5V+J7urrIKjAbKmYNVsEd9XlwRWRMUsETWOUxuqAAAIABJREFUpxUDVqW2ey7TjsN0GaFhORY4PbCBUxs20JbM8vEffJn7bhutuMeqXF3tGT76vjM88MYRfu1/7OAls5Hx1lb2nn6VWDYb3r2kA60t3NHZHt5cMwWs/5+9Ow+T46rv/f8+VdXds69abUmWLMk2XmRsSRZeAGOwzRYMBuOQXIcQyEK2myckudzATW7yIxtZINwkZCErgYSYEAhgMBhbXrGWsa3Nq1Zr32brnp5equr7+6O6Z7prunt6NFtP9/f1PH40U+dMT0+PdPrj7zl1jlL1qVa2lVFKzSwbyv8Dv5B3cgNc7We5WLwLCm6ubbP30jUcXLaMjVcO889/tJvbb5y9cFVo/SVJPv/bz3PfXSfob29n5xWXMdJU3Z2AjjG8e8lifuKiZeGmSTVb5X4D4zRgKVWfJv/Xr5RaiCr+277Q3dkNsMr36JCpbYPg2jbPrl/Lmc5O3v+2U/zRr71EV/vUKkjTZVvCT73nGL/zi/vxWh36rljPcMvk68pv6OzgDd2dFxQq2xyb6CQhq+BxK3dUSi0o+g9aqfpkVwoETdNcrr54CgErazs8t34t8ZYWPvahQ3z03lexrel9/+l4w6Z+/uKTz9PcJjx72VqGWyrvjvC6ro7wpSnpdSqvxCio4GkFS6k6ogFLqfpkmwrHDU43YPWKX9UCTs+y2LX+UoZbWvj1nzrEO994NtxlXqxbleTPPv4iLW3Cs5ddSqK5OdwFgItjMVbEYuHLU9ITrXxzYMEgrAFLqTqiAUup+mRX+scdu8ApwjwLWCz5I5hLE2Df6ksYam7hYz95iLe9vjbCVd7alUHIirXA7nWXko5MjIw3TrN6BdBb4nEL6RospepTpTFYKbVwVZwinF5NJrBE/Irrkg4uX87Zzk5+7J0neUeNVK7C1q5M8ju/+AqpiMPetWvwCtZLRYzh+inseVVOT6TyuYUasJSqTxqwlKpPFQNWdJpThBAcAt1WphJ2trOTw8uWctNrB/nw3UfDzTVl41XD/M/7jjDY3Mr+iy4au359RztNkyxQr0a7Uzk3acBSqj5Vrl0rpRaqigHLKZ2LpmyZeMRN8TCSdRxeWr2CZb1pPvGzB7jQjHLsJGx7Fl45BK8chLP9kEpDKgXRKHR1QHcndHfBmpWwdjWsuwQuWTnJ/GgJd912hhcOtvHgE4tYPDRETzzOzTO051WbXTk3acBSqj5pwFKqPlmVAlZkBipYECx2PwxkC669sHIlGTvCx3/mBVqaK6/TCjtwGL74n/DdR4NQVci2LYxlYYyFiI/nekiJClpHG9y4EW7cBHe8AS5fG+5R2i/9+BH69nbwwupV3H3g8LQXt+e1VV/BmmIsVErVMg1YStUn2yqzQsph5nZ4NwSL3fMHQZ/p6uJsVyf33HmKay+v/oDlvt3wqT+Hx7YFnzsRh66eTto7Oog1txBrasIuUQnyPQ/XdUmnU2RSKVKpFMmRBN97LMmDjwr/90+DgPXet8OH7oWervAjjGtt9vhfHznEr//J5RxddTFMYSuKStqsic+7kFawlKpPGrCUqk9lpwhnqnqVlz8I2jOGAysuYnFXho+891i4W0nn+uF3PwNf+q9gP6iOrm56lyyhrb2jqnP8LNsmattEYzHoGJ/S832PkXiCocF+Drw6wO//P5fPfgF+5sfh5z8Ivd0FD1Jg09VD3H7jeR76YS8vpZJc7k8/ZLU6Nobye2YUBGENWErVES1JK1WfygYsu9w7/QWKIXSKz9Eli0lGovz0vUeJRioHE8+Hv/sSbHp7EK7a2jtYf+U1rF63nvaOzqrCVSWWZdPe2cmKS9bwmg3XserStfg089kvwLW3w//9UxgYCn9V4CP3HCXq+Hw6OhO3AgSDbKXd3LWCpVR9Kv+vXim1kJWNKOWul1NNyOiwLA4vX8rlq0d485bz4eYiI0m475fh438A6UyEVZeu49LLr6CpzGaf02WMoaunl/VXXs2qS9chppn/94/whrvh6WfCvWFJT4Z73naKnZbDYyWmJQG8Emu/KqnyNdfxWKk6ov+glVJljWLYY0XITBIRDi1ehGtsfvqeoxXvGjxxGt5+Hzy4Fbp6e7ns6g109fSEu82KIGj1cNlV13DxJas5ddbwIz8Jf/a3QUWt0AfecZK2Zo9/KLGH1clMhj85cpTMFKYPrbJxt8jUUptSqqZVGAqVUgtY2Tfrsg0lnLJsRozhZcsp+3WuZbFz2VLWrkxy/ZXD4eYxe1+Ct9wb/Ln0ootZtWYt1iQLwGdL7+IlrLviKqKxJn7vc0FFLVNwK2RLk8e73nyG5yyb5woSY8L1+MKxE5xOZ9g+VP0i/iorXlV1UkotDBqwlGowXlXFFPCAMyYYIuLGcKRMGNrT20vCjnDv20+WnZc8eATe82E4229YuWYtSy+6ONxlzjW1tLDuNVfR2d3Ng1vhZ34D3IJdJd77llM4tvCPBVWsL506zUDWBeDRwcGqEpEA6SlUu5RS9UEDllL1qex7fxAPJnfK2BTGgpPGJl4iQfUtWUpPR5Y33dAfbgLgzDl4708Hi8pXXbqO7t7ecJd5Y1k2qy5dR0dXN9/8PvziJyBfbOrpyvLmG8/zqO1w2hi2DQ3z0khy7GvPZ7LsS4yMfV5Oyqt6L7CyvzOl1MKjAUup+lR2UiqLKQpOpQhwqsRiqgOhqcIzzS2cam7hjpvP4ZS4PTE5Cu//OXj1BFy0ajUdXWX2R5hHxhguWbuO9o5O7v8W/MO/j7e99fVnEeCrxuIbZ86NN+Q82j8YvjTBgFttpNWApVQ9mTiCKqXqXnqSRevnjFVyYfsoxVOFe3LVqLfcVPrOwf/1+7DnRViy/CJ6Fy8JN9cMYwyrLl1LNBbl//wxvLg/uL5hfZwl3Rm+almkSkzzHRgd5Vg6Hb5c5Fzh4i6lVMPQgKVUfapYDUmWmOordDK3M3spp4xNwhgE2LN4EWsuHmXtyvGps7z7vwVfzu1xVQtrriZjOw4r16wlnYFPfjq4ZllBeOyPxhhubin+gpzJqlhnJglYBb+oir8zpdTCogFLqQY0XCFgDRvDSIV2AQ4Yh5OtrSTsCG/cPHHt1Zlz8LHfhUjEYeWll05749C50trWTldPD488FRw0DYz9fOe7Ogp6jnsunmCocHV8yP7kxPCplKp/GrCUqk9l12ABDOXuDiylUvUqL2kMz3UG66k2XTNxS/Tf/WywoejylZcQKbGXVC1btHQ5AP/5QPD5ulUjdLS6nG9vL+g1zhPhicHSVSxXhEOjqfDlcir9ypRSC4yeRahUfar4Zp3CkMYQC3VLYRioEL4KHezspLXJ44o1xXfSPbcP/u3r0NreTlfPzN0xmE6lGE2OkBodxc1myWYzuFmX4Ec1GBNM80VjTcRiMZpbWmlpa5ty9ay5JZgKPHYi+NyyYONVw2wd6SFrO0S8iYvWnxoc5vae7glH4hwcTZGtGHWLVN1RKVX7NGAp1YAEGDAWy6R4auu0ZVX1Lu/ZNkMtLdx81SC2VfwVO3cFf3b3LCq6PlXZTIbhoUGGBwdJJobxQtut23ZwaLNtg+uC5wVbQYiMV9Rs26KlLQh6nd09WCXujAwzxhCJRjh6Ynzt1Karh3hkew+D7a0sHpxYsRv1PJ6NJ9jSWTyNuCeeKPpcKdU4NGApVZ8mzUn9xrCsoJcPnKliehAg3tyMGMPV6ycGiHiuoBVrbipuqILv+wwN9NN/9iwjiWCndMuCjdfAdVfDtVfClZfBRUuhpytoK5TOBJWng6/C9ufgsad9ntk7RHxoiJNHj9DVu5glyy/CcSoPfZFojFcLAtZV64Kfc6ildMCCoIoVDlj7RibfJ0vGf1WT/s6UUgtH5VFGKbVQTfpmPWwsPCAfqfqNVfUmpMMtwcHM61dNDBD5vTftMgcllyIinD9zmjOnTuBmXRwH3nUHvPMtcNvN0N0Z/orSYlFYuzr47/Y3wCd+Gc71w5e/Dv/8Hx6Hj51i4NwZFi+7iMXLlpedPoxGYwz2JxiKQ2c7rFyeIhrxied+7lKOplIcTaVY2RQEy2PpNIO5Xd+rNOnvTCm1cExeL1dKLUiTvVvnpwnzTlVZvQKI57YsWLtq4h1y+Vmxas8ZHOzv5+V9uzlx9FV6Ol1++1dh38Pwj38G73179eGqnEU98Ms/BdsfgE9/AlqafU4dP8b+F/aRGh0NdwcgEg0W5h/Nr8MywtpVSRKhgBW+d/CpwfGzGPdWscu7Uqp+acBSqj5Nlq+A8YA1YgyJMtWcA+JPqGzFW5pZ3J2hsy3cMh6wJqtgJUcS7H/heV49uB+LNB//Bej7ThCGFvWEe0+fbcGHPwA7vg3v/xEYTSbZ/8JehgcHwl2JRmMAHDs5fm39qiQZ2yEVjQBwFJ8DUrwu7Nl4gtHc0Tj78nOl1avqd6aUWhg0YCnVwPKh6rSxy767Py4ej/jFQSoVi7JieentB4ZzucKqELDOnjrJgRdfIJVM8MF74Jnvwq9/FCrMwM2Yxb3w+T+Ab/wDdHYIRw68wsC5s0V9IrGggpW/kxBgxdLg503lwtdDvsf+UMDK+D47hhO4IpzMZIrayin3uiulFjZdg6VUfarqfTuFIYvhXJmtGQQYEGEA4XoReo0h6zh4xmJpT+kAEU+AZVkl1zd5rsvRwwcZHhxkzUr4hz+DDa8J95obt9wA3/ki3P0ROHr4EK7rsnhZsAdWvoKVnyIEWJz7eVPRCHvFZ1CETImX+amhIVY3x/Cr354hb8pfoJSqXaVHVaXUQid+le/Xhy17wlqivPMFj/Fd30WAVG7j0MW9ZQLWSLA9QthoMskrL+xleHCQd98Jj9w/f+Eqb/0a+O6XYN1qOHnsKGdPnwIK1mAVTBHmf96RaJRH/eAVSxLcfVnoTDrDYwOl7zScRHW/MKXUgjBxFFRK1YOhFJjTVVRR4iUqTXkvFUyBnUF4XvyxNUhLekofchxPgLGKi+PJRIJDL7+AeBk+/Un4wp9Ae1tRl3lz8TJ44IuwZhWcOnaURHwY27ZxHLtoDdbi7iBgHXGcosrVqRKv8ZFU6enTUvaPf/34Cnml1IKnAUup+vRxwP+u78rEZejjLMClfMB6NRewuru6sSyLrb7HaG5tVakF7gDD8eIF7on4MIdeeRHb9vj3z8OHfxQqZLp50dsN//o5aIoJRw/uJ5vJ4ERjvHp8vE9Ha/DzDtgWkUiEjvZgz6vCEJqX8f0Kr+q4OMITvisGzgG5I6bLM56ZmOZmmpmD76FUA9CApdQ0GSbcZDdjgnc6M77jZfWeAX6vHzFP56azSvGZuNVAof5cdaUp1kxHewcZhJdz77/RyMRgAcEZhPmAlRge5vArLxGL+vzn38KtN4Y615Ar1sFf/h5ksy5HDu4nGoly9jykc4W6/M9rWRZdHV3E8ncalghYcderar7v+75HBozAzxCErMosP7jlcTYSau4xjS8TT+9WSk2ZBiylpskgp8PXZoxBMAQLg6buU8DeneJRzVRhWArIANFoFGMMLc2tRCNRTuXeiGOxicEi60IqHdxBmBpNcuTAyzQ3CV//e7hxY7h37bnrTvipe4MpzXg8mLE7nnv1LQsijhCJRMf+M8YwWFWUmmif+BwJwtm/A/8Vai7J8qKnIdiYNU8IgrIYE/xXVe1sovxjGofZ+/usVAPRgKXUNPnGCt70plhVEAy+sfCMhWssXIKPfYI3yoAxXHiAywAflCqmCkt5MVeZyVdqADo7uzC582maSlSw8ntr+r7H4f0vI+LzT5+BjRuK+9WyT/5KMGUofvDzFd5JGI34OE6wBg2C18Zl6oun4ghbx6cGfyncXk4mM3QSyIgxuFi4xsY1Np6xg88J/i5ljY1rLDxM9fEv+DvnOZ53LNyklJo6DVhKTZMRdkEQmCYjgDfhDdAABjHgY4LARdAn90UvFz7GFFU1VVjKgdxB0PktCwAiToRY7g67Ujs75DcZTQwPk0kHC9pvu7m4T63rbIdP/cb458cK6oeWkaLZufxr8/wUX9uCqcGfpZqpwRy7peVOhKzkQ7gINoItPo74OPjY+ARHducDvF1V0PIxPvBEX1/fxO35lVJTVmKIVEpNRUTchwCv0huYAB4G19j4GKyxN0Vv7L+I+ETEC94kxR97SzTG/MI1mzf/ZNEDTs2ngD07xSt5x1s5Z0UwxhDNbcuQlw8V6fTE4aNw8/IPvBs+9P7xzxeS971j/OPdL4x/nM5aRdNz+ere4QmbNZS3t3hq8Guh5pI2btwY2bBp82cQ898YWmwk+HuDjyVBoDIIRgRLCv9u+SAyFrTK/U9A7rol8EC4TSl1YSaOkEqpKenr6xsyyMM+5e++8oyNbywMMhaggjfFiYwIFoIjQT8RaTJi/nHDphv+ecOGDa3h/lUYmyp8sMqpQhcYBaK5dUaF8vkik504fBQe7feH/3v844XGsuC3fzX4+AtfDv4UCX7mwoAViUSwLIvzVQbXOMKjwdTgWaqcGty4cWNn1rJ/AOZXLMARz1hS3V2KhX/fBHCNVXIq2wuqYemoeF8MtymlLszEEVIpNWW+4dOA8cPzZiaoWgkQVB18TJVvxgAWQgTf5KpZP2GiTd+75ppbusP9qvAsU5gqzJ+xVzg9mJcPGKkSFaxN18JLj8EzD0LbhUTBGvJz9wVThfufDD7PusHPK37x7y8ajZEhCKSTKZga/DmqmBq8avPmZVnsxxBeH1Q9vaqCVVg+sAO4FIesXO0L4K/7+voKdv5SSk3HxBFSKTVle3bs+IHAUx6m4O03WIgsEFSscm9wF8IRH0sEgZtMLPP4xo0bgzNdpqbqqcJXcs+1cIF7Xn7x98ho6bMGF/XAJReHry480Qh89CeguzP4PP/zSuj3mH+NXsqtWSunYGrwK1QxNbjhhhvW2GKexLDBylUzp8MQTCsawMv9vQRwjfFBzvmO9QeF/ZVS06MBS6mZIeJbHxHIuFg+BNMuAmNrZKZrfPEyV2Wxn7p648a14T6TqHqq8ERu/VUkMn7HXJ6fq4CdHShem1XvzvUHP6/vFQepfMA6UCG0hqYGfzHcHrZh06arxecp4FJbfMofxT01hqCaJYAf3L0qYIyP9WN7t2270LtVlVIlaMBSaobsfebpFwz8LMZYLsEqGSPBXV4zZezN1rDawn7q6uu3THUDhEmnCjPACEI0Gpuw/grAd4OvO5MLHI0i//P6XnElyXEcLMviTIWANZWpwWtuuOFGME8YWFoQqmdMPvAHt1EYwPzq3p3bvh/up5SaHg1YSs2g3Tu3/4vAL0kumdhTuLusWvnpIkEWG0sef+2mTVPdCKHiVOHx3FRU+O7BvGCKUDhzfuL0YT3LV+y8UAULgtcqhTBSIgxNZWrw2utvuNP4/ABMhyO+sUr8fmbC2OMatu3eue2zxa1KqZmgAUupGSYWT0MQhCbWf2aGhRAxYoxIu4f10DWbNr0t3KeC/FShV2qq8FjuzTdaYnoQgkXuvudx8mxjBaxTZ3MVLDf8igW73QOcCwWigqnBc0wyNXjt5s33isW3gJgjYzc2zApDcKeqCK+96qqrSidppdS0aMBSaoYZT94KQQiaTUYEx4gxEDNY39yw6YYPhPtUUHaq8EzueduOU3S9kJvJcuxUE+lM4wwh+4+2AkG4DLPt4LU6HgpY1U4NXrvxhp8TMV9GxHLwrdkMV3lGBANNdqx1S7hNKTV9jTM6KjVHjLHeCPizVb0qZERwxDMgFvClDZs3/3y4TwW/R4mpwoHcx7ZV+i5BADfr4gscPNoSbqpLIvDK4RbcTLZoH6w8J3e49emCKeHQ1OB/jjWEXLNx8yfF8HlEjINYU9nGYzryIU4savgIbqUWLg1YSs0wEdlggsAzJwwQQQwIiPnLazdv+a3c5cmUnCpMIti2XXKBe56byQDwyquNEbDODkQZHnHGfu6wfAWrP5eNQlOD5TYUNRs2bf6MMeb/MyCR3FHNcyX/27Wgt6hBKTUj5uxNQKnGIZ1zVYUYIxKELBERkd/ZsHnLZ6nu33fRVGEG8AA7V5Epx80GQePFgwt8N9EqvXiwDYBsNhtqCViWhTGGZC4ghaYGzxb3hltvvdXZsOmGfwLzK8H+VH4QkOeeCHSELyqlpq+aAVgpVaVbb73VMcbEik4EnisiOPjBdxb55Q2bbvinjRs3ll6pXmxsqnBHbrNMJ1eRKcf3fDw3y869ncx1lpwPffuCDJJNpUMt4xzbwQV2ipefGvwPSkwNrr711qb+RPJrwE/kwhXzFK4ADMaULssppaZFA5ZSM2jr1q0uyNB8hQ5Dbtf34NP7ssb+zxtvvLG5qNNEY1OF23ML3pOjyeIeJWRSac4ORDl6qincVHd27u3E97IlF7gD+L5P1g2qW4/7HuXuGtyyZUtHRyL5IPAjwfq5md/Go1pjf0WFQ4XXlVIzQwOWUjNMMK9gyh/8PPuCM+tydzH+yIjrPbhx48bcgS9lPUtQyRozODRQ+OkEmVw1p2/vZA+9sJ04G+PE2Rjp0dLVKxGhf+B88TX4KKGpwQ0bbloy6smjwBssgkOY51P+qHFL5JVQk1JqBmjAUmqGGdjlz1cJq0Bw/qGA8PoM9qNXb9myNNwn5PeAYeAo8FByNEliJBHqMi6bTgPC489eyNnTC8eTzwQ/X7ZMwBocHiQTrEn7fO7SVuCrYx2A66676RKJuE8Cr52JcwVnQm5JfcrPpraG25RS06cBS6kZJpivGWPM7G0zWr38USvGcK3l+U++9nWvWx3uUyAD3Ao8ANwDvDwcHyKVThV1GiNCKjnKcy90cG6wfveq/P5TvSAe2czEgJUYiTMaTKd+h+Buwe8SvHZjrtuy5UrPyj5lDOtm8lzB6TF4gm8wD+zevXsk3KqUmj4NWErNMH808RDIkG+sWngnHT+/ELPWz3pPXrdly5XhPgWeBX4TGATeAQwODg74vl+64pJOjiICP3i6Pu/0P3KimVeOtDI6Mjph/6tMNsNwfBjgBeADBDdg/jgFG4peu2nTDZ4rTwgsn41zBS+UBxhjLDF+vuqmlJphGrCUmmH79u3LCOb3BYxvauOfmJUPWcZc5Ln+kxs2vq7S7t39uT/3Ax/xxbeG4kOF7WPcdBoRjwef6K3Luwm/99QiAFLJ4kX/gjA0NCgEWeUeIP8C5V87rtm8+S2CeRiky0Fm7VzBqRIMub+X39yzY8dD4Xal1MyojdFfqTozOtj/5wiHvfyBJDXAEj9YWG1MJ8Z/+OpNW24P9ynha8B3R0eT+XVGRUSEVCLJoWMt7HqxvrZTSqUt/vvhxXhuBi9TvP9VMpkk62YN8MfAvqJGYMOmLe8zYh4QodlBTK1UrgRwjeWLkPB8+1fD7UqpmaMBS6lZsH///rTB3AdkXTPn246WldsawIA0W8gDGzZteV+4T4gAvwGUXfA+mhjBGPjKd5eFmxa07zy+mETSITk88eceGUkIwQ0Bvx9uu2bz5p8G+QpgR5A5OVewGgK4WAKIGHP3vmd+uD/cRyk1czRgKTVLdvVte8IYuQ+McbFqppJlEBzEADbIV4JAUNEe4Pup1Cielz9QZ5zveYwmRnh6VxdHTky25dbC4IvhK99ZhvgumdHiRf6pVArXcw3w10C8sO3ajZs/bsT8rQHjiFdD4crgGtvHGEH48N6d274f7qOUmlmVz8NQSk3L6RMn9i1dfvFxjHmnGINB5mOP9wkMYCFGjAWYdy1ZfnHqzMnjT4b7FRgCPmDbNtFoLNyG62ZpaW9jMB7h1s1jy5AWrO88vpjvPbWIkaH4hPMH44lhXNcF+DHG116xYePmP8aY3zKI2JLbUb8GCAYXIxjjifBje/q2fzncRyk187SCpdQs2923/Qtg7hVwXWNLbUSsIGTZ4hkDYgx/uGHTDZ/OXS7lB0A2nZ64VQGA7wZVrK3be9i7Pzi3b6EaTdl84asrEN8llZg4PZjOpAXYC7wKcM8999jXbtr8Dxjza0hthSsfg2sswZhRI+ade/q23x/uo5SaHRqwlJoDu3du+6oYeTsw6mLVVMhyxMuvEvv1azbd8IVbb7211EGEI8Dj6UxawtsV5CWH4hh8/vLLqxb0HYX//p1lDAxHiPcPh5vIZjP4vm+ABwHWrVsXe/nQka8K5kNGggO3a+M3C77JVa5EhhDrtl19274X7qOUmj0asJSaI3t27HgIsW5DZMjFohY2Is2z8TEIBn7qfDz5H6tvvbXUAYPbAOOWWIcF4PseiaE4Lx5s49uPLQ43LwhHTzXxb99ejptJk0mNhpvJBlODANsvv/nm9paunu8IvNtI/uib2kiWPgYPCwynjMUtu/ue3hbuo5SaXRqwlJpDu/ue3mYsbhHkpGes/H5E8y6YLhzb9f09HSPJb19+883toW6nAHyv9KajAKPxBL6b5S+/vIpT5yau1aplvhj+4O8uxXUN8f7S+375ucOw29vbR2PpzFbgTbVwrmAhz1h4xkKE/bZj37Rrx44J20gopWZfbYzuSjWQXTt27LMd+yYR9nuMbfo478ZClvgg3BZLZR/ZuHFjsNNm4DSMh4xyhvoHSKUt/vDvLqXMBvA16SvfWcYLB9pIDA3jucX7XuX5vk8kGmX1+is+B+Z6G6mJcwXzvFxlVIRdJuvc/NzTTx8O91FKzY3aGNmVajDPPf30YXHMLSLs8jB4NRKyAGwECwHDxqyxn7h68+aVuaZzAN4kqcnLZEkODbPrpXb++RsXh5tr0u6X2vn7r67AzaQZjU9c2J5nRxzWXXElxjKrrXwYrRFBRdSA4fEo3ht3737qTLiPUmru1M6orlSD2btt2+ko3hsxPO7XWsgSP1+ZudwS89SGTZsuJ7fnU7lF7oVGEyNk0yn+5RsXs3V7T7i5ppw6F+OTn1uP53kMnx8IN4+JRCOsWLMWJxIpON+xNngmt6bP8K1Wx76zr6+v9BynUmrO1M6IrlQD6uvrG2p17DsxfCsIWTYS7rBIAAAgAElEQVTld0qYWxaSDxErBOvJi1etuQRAqqjaiAjx8wP4Xpbf/9tLeelwa7hLTUgkbX7zM+tJjNgMnu3H90pPf0ZiMToWL8K2bZx8ha8GCODmwxV8sae15T0//OEPJ67OV0rNOd1oVKl5duzYMXfF8mVf9Yy9BtiQ25C0JmJW/nmIMc0tLS3vHEkkIr7v0xQrdZNhMREhk0oTbWnl4W2L2Hz1ML1dpdc2zYf4iMOvf/oK9h9tJd4/QDZVeo+vWHMTHYsWYQw1Fa4wJjj6xhiDyJ/v7tvxc4cPH548/Sql5oQGLKVqwMmTJ/0zJ45/Y+nyi7ow5nVijNTSru8GjBjL6ertNenRUWyruuK3+D7p0TROLAhZm64aZlH3/Ies+IjDx/74cl4+ElTWYs3NNLW1EmtuJhKLYVk2IESbm2nr7sYyBkdqaGMNY8gGu7MbI/Jbu/t2/Ga4i1JqftXMeKGUAsBcu3HzJ8WY3zUguZ3Wa0LuyBUESAwMkk4mx9rsiIPtRHAiESzHwbINlmVjgkXXGGNwHJuI4/OJnz3A6zeWX+s0246dauJ/f+Yyjp1uws1m8T0XTPB8bdvGhMOjCA6S+8nnX25a0M/F3l/avWPHX4X7KKXmX62M3UqpAhs2b/55xPwFgCO+qbE3d8CQHhlBgGhTE5Y9sRguIoj4iC9jC+MjURsRi/vuOsFP3nWMcJaZbdt2d/I7f7WOVMpieGCA9Oh4SMyzbJu2zi6iTc0YwBavZgZKyU8Lggfmvt07t/17uI9SqjbUyrihlArZsOmGDwBfBCwHP3+czfwzhqwYyNXWfM8jm06TzWbwslk81y27V5YxFh29PUSiTVxzWZxf+9AhVi1PhbvNuOSozd/dv5JvPLIE8T0Gz53HzRYf4gxBpa21s4umllYMglPFgv65IsbgihGMSRmf9+x6ZvuD4T5KqdqhAUupGnbNpk1vA+trRiTmGKmZkCWAiwXGkEqOkBisfsrPGENzWzst7e04NvzEu45zz1tP0RSb+TDj+/DEMz187ourOD8UJZNKkRgcKBsA27t7iDW3YBFUrmpFbhsPARkWy7xtz/btPwz3UUrVFg1YStW4127adLOH9QAi7Q5iauYuNoKQJcYwmogzMjy1rZecSIT27i5sJ0Z7q8u9bzvFu998mtbm6QcbXwyP7ejmi9+8iINHW0A8hgcGS54vmNfS3kFLeweGYHf2WhkcfWPhBSvATiH2HXv6frgn3EcpVXtqZQxRSlVw9fVbNlhGvo9hiY3U1A7irrEQDCNDg4yOlN8FvRRjDNGmZlo7OrBsh6aYx+uvH+RNW86z6eohIk71YVIE9h9p5eFtPTy8rZcz/VHAZzQxQjIer7h/V7SpiY6eRblpQSGo0c2/fLgCDmLxlt3btx8K91FK1SYNWEotEFdv3LjWwn4Iw+paDVn9p0+W3ayzknzQam5rw4lEAWiKeVy+Osllq0dYtypJZ3uW9haP1haPdMYiPmITH3E4cqKZlw+38sKhVgaGIgD4nktqZITRkcSkO88bY+havBTbcYiIT62Eq7Hd2ZE9nuGOfTt2nAr3UUrVLg1YSi0g111380Wenf0ecJUlgk1thCzB4BqL9Ogo8YHz4eYpsR2HaFMzsaYmnGiU6oYpwcu6ZDNpUslkyQXs5TS1tNLW1R0cdF1z4YonLDfzI88999xguI9SqrZVM3IppWrINdfc0m1imW8DN1q59UK1IB8KBs6cxnNnZjNRYwy2E+yxZSwLyxiMbSO+j4jgex6e5+Jls5NWqsrpWrwEx4kQqZGwmq8GAg+0Ruz36dE3Si1MGrCUWoA2bNjQSrTpq8BbjQhODYSD3B5NJOPDJOPD4eaaZNk2PUuXB+cuzntQzW3kagwYvtzT2vLBrVu3uuFeSqmFYeLugEqpmnf69Onsou6u+61IZD3GXI2x5v3kdkMQsizbITXFxe7zJdrUTKy5GVvm/+xH11gixhgDf7F75/af1nMFlVrY5ntMVkpdoH379mUuX7P6f2D4vA+4xlzYHNkMMiIld3WvVbbjAPNbyhcgiyUS7Nz6O7t2bv+l3GWl1AK2cEZCpdQEzz//vJw+cfyBZRevsAXeKMaa10OiBQPGIj2aRPzaL8DEWlpwItF5u1lAMHjG9jHGGOF/7u7b/ulwH6XUwqQBS6k6cPrE8UeWXrRiCHhrELLyB9nMtSDepZPJsrul15JoLLhT0Z6HglHuzksfEBHu2923/e/DfZRSC5dOESpVJ3bv3PZZ4IO+iLjGusB76mbK/H73avm5V2mun60fhCsRyAjmXXv6tn853EcptbBpwFKqjuzeuf1fjLHfA2RdM/f3xeWDir8ApgcBfDd3k94c1vt8E5wrKBC3xNy+Z+e2B8J9lFILnwYsperM7p1P/7cYuQNhxDNzfKqesRDxL2g39/mQ35DUn6MSlofBwwLhrG/xhl19254I91FK1QcNWErVoT07djwK1hsF+gt2BZ91PpBNp8OXa5abzQabls5BBcvD4BsLhMM+3k37tm/fFe6jlKofGrCUqlO7+55+xrK4CTg6FyHLz4WUzAIKWACp5AiCmdXXxzNWEK5gXwTvpr19fQfCfZRS9UUDllJ1bNf27S9jm5tAXvSMhTebIUIMvu+TTo6Em2raaCIeHLsTBKAZNxZuhW2Sjr6+r6/vZLiPUqr+zM6IopSqGbu3bTsWEf/1Ajt9Y+HNQpDwjQXGjIWVhcT3fUbjwwhBGJpJhZVD45hf27PniYFQF6VUnZrZ0UQpVZP6+vrOZWKR24Af+ARnBs4UwQSLt7NZRhPxcPOCkEzEyWbS+Pl1UjPANXawHUMmd/C1x2XFPZRS9WxmRhKlVM176ckn48nB/ncAz+YPZp6u3GaZiAjDA+fDzQtKfKAfz3XHF6NfoOA1CbYuTSVHiA/256771xT3VErVswsfRZRSC87+/fvTxrKeBBBjyGJd8Cabuc0yg3DVfw4vv6fUAuV7HkPnzuBmM0FFzkz9tRGTe02AZHyYxOBAwY721vLCvkqp+qYBS6kGI75/CQQBQAimsqa0+D1X/fKMhe95DJ49s6C2ZqjE932Gzp0jPTqaC5DBayMVXh9hPFi5WPi+z/D5cyTjw0H72KarsmTsi5RSdS84Sl4p1TCMsMrHl2R82GTSKTq6e8EOjju2ECwRzITajcEnqFoFBzpDejTJyNDggtm1vVoiPvGB86SSMVrbO3Gi0eAoaAli1thrY4KPgjX9BhGfVHKE0UR8wkar4vtiLKu36KJSqq5pwFKqwQi0SG7rcjeTof/0SZpaWmhuawcnMrafVVCbMUGCKNiIM5MaZTQRJ5sJdkGvV9l0msH0GZxIhGhTM5FYE47jYKyg8C8iiO+TzaTJZtKkk6NImcOJJIilsfB1pVT90oClVKMxRKF4ziuVTJJKJrEdBycSxYlGsSwLYwzi+7iui+e6ZDPpgimvxuBms7jZLOSm/EwubE5lOwrxxWARDV9XStUvDVhKNR47qE5N5OWCVHo0GW5SOVMJVnnGGAwsjAMalVIzQhe5K9VgDKRCBSw12wziC/U9p6qUKqIBS6kGI5A0xky9DKOmwWAMWhZUqoFowFKqwQjSbyxLS1hzxLIsLMsyIEfCbUqp+qUBS6kGYzDngLG74dTsMpYdfCAcKm5RStUzHWGVajTGnACw7Nwbv5pVkWhw86BY1vOhJqVUHdOApVSjEdkNEIlEwi1qFji5gGUZeTLUpJSqYxqwlGow4pvnAGxHA9ZciERjCJzftX37K+E2pVT90oClVIPx04k9ICORmG4sPtucSATbcTDwdcptPqaUqksasJRqMPv27cuImO85kaiuw5pl0aZmAHzMV0JNSqk6pwFLqQZkDN8GiDY1hZvUDDHG0NTaKoicWNTW/Ei4XSlV3zRgKdWAmm1zP5BsamkLN6kZ0tTSimXZBmM+u3XrVjfcrpSqbxqwlGpA27ZtGzbIvzqRyNhdbmrmGGNobm/3ERKWm/m7cLtSqv5pwFKqQXm+/VnAb+voCjepacpVryyBTz333HOD4XalVP3TgKVUg9r7zNMvAF9yolFizS3hZnWBbMehpaPDRzg8OtT/2XC7UqoxaMBSqpFZ/DYi6daOTt8YPZ5w2oyhvbtHjLHEMv7/2L9/fzrcRSnVGPQebaUa2OnjxweXXrwibSzrDmMM2bTmgelo6+om2tRswHxs184d94fblVKNQytYSjW4nraWzwDbmtvax/ZtUlMXa26hqaUVY7h/985tfx5uV0o1Fg1YSjW4rVu3up6Rd4vIqx3dPeJE9K7CqYo1t9DW1S3Ay6lo5MPoru1KNTwNWEop9u3YccoYuQMY6uhd5OsO79VraWunvbsH4CAWb33pySfj4T5Kqcajq1qVUmNeu2nTzT7WVt9znaHz5/Bc3R+zHGMMrZ1dNLW0MpJIcGT/yydd170L2BHuq5RqPFrBUkqNeW7nztVHDrxiG8uma9ESYs26JqsUJxKho3cRTS2tLBnqZ8WBFxHXXWbgB8CWcH+lVOPReQClVN67gK846RQ3JoZMorMLu7UdYwxuJhPu25CMZdHa0Ul7Zze243DJmZNcfuwwyxGWWZiXfaLAjwJfB86Fvlwp1UB0ilApBbDUwPMx6PpRB6vLQNZx2LdqLf3tnWQzGZLDg2QbNGgZY4i1tNLa3oGxLFrSKV5z9CCdI4mifq8K/JcLAs8ArwOyRR2UUg1DK1hKKQP8K3DdHTbm4tzCAdv3WTbYDwLxzm5iLa040Si+5+J7XuHX1yVjDE4kSnN7O+3dvcSamsF1ufzUMa44eojmEmGz04AHnBCWE3z4aKiLUqpBaAVLKfUe4GuXWfD2Mv/LNdLUzCsXraK/vROATDrFaCKOm8kgsvB3JDDGwrItLNshEo3iRCJEojGMFaTN1OgoQ2fP8PbBs3SKH/rqYh7wZRc5LwjwGuDlUBelVAPQgKVUYzPANhs2fTiCmexEwoG2Dl5dvJzzHUHQEt8nkxolm8mQzWTwPffCA5cxGIJ1Tvlje4I/DcYYjDX+MQYMBozByoWg4Pr4YwR9849rco9LwWMEfTG5z0PcbJZsKsWZM6cYGhjgjTZcV+VtQccF7g9uwPxr4KPFrUqpRjBxVFFKNZJbgMevtuAtZapXpZyPNfNwZy9t3T3EmprGrosIvu8hno8gQdgSMFY+xIyHmSA0jYep2RSEPiH4Q0AEP/fx2HP2fTzXxctmcbNZfM8nnUlzvv8cSwx8wCkeMJuAVMHnYf/mwmkhDawEzobblVL1zQlfUEo1lI8BXF+mMmMT7OUSXqndmx7lylPH+P7xY7S2tbN0yTKcWBTbcbBsByc6cTf4IGwFgUYEfN8H3wMfhHDo8UEKrvtCJpMmOZpEfJ+I49Dc3Br0RXKP4U8IToiMf+8LMDjYjyEIn+EYuMaHiwQesye+PhC8pt/xiBFUsH433K6Uqm8asJRqXCuBu1Yb6AmnB6BF4HIPDtkwWKL9Kgue9+F4Is5QJEosNl7JyjPGXHC4CUuMxBmODwPQ3NyCPcvb+A0nhvF8n+ssWFLi57cJQlaXwLedidWs9RY87iMjwi8IfAqovHhLKVVXZneEUkrVsrcC5ooSo0C7wAYXmifJRm+2g0FkYGigZJAqde1CzeBDTcrzPEYScdoM3FRm6jR/uVvgDnfiLdkWcLnBCCwBrg81K6XqXImhVSnVIN4KcEloFGgSuMIdHxysCsGmx8BmK5juGxoeCjfPsPEnUqKgNKP6B84jwG0WRMKNOdGC12WJwC0ldq5YPf7avrXgslKqAWjAUqoxRQzcvtRA4WE4BrjCKw4V5QJG3mY72P8pOTpCNltqNdLMmKsK1khyhKybZZ0Fl1YYIdtDn6/3g6BV6CIDTpAMNWAp1WAqDB9KqTq2RaD9klApaJkfrL0qVFipKcVh/A7E/oHzRW0za5InMgNEhOH4EBHg1klGx7YST2dLqIplAyuD3SBuBLqKW5VS9WySIUQpVafuhOLpQRtYUWKaa+LS9YlWGniNBZ7vMRyfnanC4jwzO5OE5wfOISLcbEPbJN+ivUTAWirQG7qee40t4LbiFqVUPdOApVRj2miAZQUhotcvPR3YVCJIlPIGG2JAYiSB687CVGHhHOEk4edCjCRHyGQyLDFw7SQjY3Puv1LWhu4VvGj8uepCd6UayCTDiFKqTl3dZYrvfFtUZhOB8JRhOc3Am3IPeO782VldjzXT+SqVGmV4eBCb0ntehS2q8JqsDrUVbIFxZcFlpVSd04ClVONpB1b2FqQIm2A/p1JsJt+uIe8KC95qAyKc6z9LOh3eHerCzeSWD4VGkgn6B/uJAfc4pfe8Cltc4al0CBRus+oAHQYBriq4rJSqcxqwlGo8rwHoLbjQWiEwQOkF3eVcYcHdDkREOD9wnuRoMtylZgzHhxgaHqLTwI86xVOmlYTXWYWF23uDothagllUpVQD0IClVOO5Cop3b5/JgAWwwsC9TrBQfHBogKHhwXCXKZvJCpbv+5zvP0diJMGyXLjqqjJcQeUKFkysBuaqhTZwWXGLUqpe6VE5SjWeoIJVECgmW8g+WQArpdfAB2z4Lw/OJUcYSY4QcSI4joPjRIhEch/bFzIMVZeGRATPc8m6Lq6bHfvTdV0A1lrwNntqA2Ezk69LC98sUPBavwbYM96ilKpXUxlXlFL1YRkUb0NQuNi9lAsJWACtBt7vwLdceFUg62azWTcbgdGxPsYYcRzHOE5kLIBFnAi2XfyspHCjhhL5yg2FqGwQpIRQbwMu4Fxrwa1VLGgPq7TAPS8S6lPwWi8tuKyUqmMasJRqPL2G4sVAkw0E+YXuo1NNIwQLvt/twEMePO8HxR0DwwJxwBeRaDab7cxms03jsSsIXhEnYvIVr3Q6PdaWTqVIWBbZ7FhFSgQJP7tRIAF4gGOCmc4mAef1Nmy8wAUSi8vcbVko/HoW7CW2aPxDpVQ9C48DSqn61xsDMQXFm0rnDea1X2DAgmCx5x12kOxOCCSEjgS0JwVT7luLiMlmM5LJZiZ8V9dziceHJ6lpBdtVxUBaDKYZaDFwuYH1FxiuYPL1VwDhDSoK9szSgKVUg9CApVTjWdQcHN8yxjWEt0qfoE3gTPjiFG20YOP4p0aAJDAShC5GGP9zRCABJiHIaEGAsgmCUgvBf825j/N/tpjcOqnctQuYBayoqoAV+o5N458X3ryplKpjGrCUajAGesO7kJc4IWeCqd5JWA0DtBKs1aqw/5T5vgf7fLjPKV6cP9fapbqjgzKhz53gP3G1gqVUw5hGoVwptRAJtBduhAnBqu/JtMoMl4KmID9Qhe/Om2vVVK8AEiVeqNxr3ll8VSlVrzRgKdV4JizTnrjKaSLD7FSxqlHF05sT1Qas4fAFxmZgq8mySqk6oAFLqcbjhRNWtYvX5ytg5c3zt6eniifgU7qClfvSamZjlVJ1QAOWUg3GgB/OCdWeGDjZBpuzJZ9X5unbj6lmfm/QlH6euVCrFSylGoQGLKUaz4QKVtpUV1qZbMf32VILAcumug1XT5eoXoFOESrVaDRgKdV43HDAEiBeJhgUquYOutlURb6ZNdUu8j9ZppMGLKUaiwYspRqMwPlSU4JDVYwGsSpDxkybj+8ZVrjzfSUnS7yObvCfAc6H25RS9anEUKCUqnMnRooO9gsMV5liJju3cDbUwhRheGuLUoZM4SmL40bGn/jpgstKqTqmAUupxnMqAyY8V5Woch2WPY8pZx6/9YQDnEspNz04Mv7hqfEPlVL1TAOWUo3nJBRVVYDq12HNZwVrPlVTwTpR5okWvNYasJRqEBqwlGo8pwAS4atUtw5rPgNWFUWkWTNZwBJKr7+CogqWThEq1SDKDAdKqTr2CsBAibQyVKYCU6hRA9ZkW1ScKrP+Cope61cKLiul6pgGLKUazx6AcyUCQ8IEe2JVUs1apNkyj9+arvCFkAMVRtPca50EDhc1KKXqVoUhQSlVpw4AqfNl0srZSQLWfOzmbiZ5TnOhu8LP7QOHKoym54K7NvdQ4hxIpVR9qjAkKKXqlAfsPVtiqwaAc5OMCvMSsHJ/zsO3BiACdFT45kctSIcv5iQE0sGPsDvcppSqX5MMpUqpOrU7BSZRIjQkDYxUqBjN54HP8/WtV/mV72Q8UKHx7PiHe8Y/VErVOw1YSjWmHwIcL5NYKlWxIkB7ma+bLRXyy5y4pMLPmwGOVHi9jo1PCj5VcFkpVecqDAtKqTr2CMDRMsHhrKlcLeqZ45VE8zlFaAErK/y8h63KG7QeEzAwBDwXblNK1S8NWEo1poMGjh0tsw4rYypvOtpT8qtmz3wGrOUSVO3KeaXCKJoGzggIPErlHKaUqjMVhgalVB0TgYeHBBMvk1rOVBgdmiX4b67Nw7dkVYXq1YApfzwOwHF/7Dk/UtyilKp3FYZQpVSd+wHAoTKp5awF4fMKC81lFWu+KlgOsK5CwNo7yQha8Nr+oOCyUqoBTDI8KKXq2LcA75UyAUIof/QLwNJJ7qybSXP1fcLW+xALX8xJAfsrvD4+sN9HCPYd2xtqVkrVuQrDg1KqzvUDDx2T8ke8nLbKV42aBLrLhLOZNh8VLANcXeHne2mSxe3Hg9fVAPczt09dKVUDNGAp1djuF+BAmSCRMZW3bLiozNfNlrlMKat86CzzDX3g+QqvC8D+8dfm/oLLSqkGMckQoZSqc98A/JcqBKVK04QdAq1lQshMmo8K1jUVXpNDVuXNWD3g5WB68DDwbHGrUqoRVBg6lVIN4Bzw30cFBsqkl4SB4QphYi6qWBW+/axYLLCszOsBky9uP+iPTQ/+I3ObC5VSNWKSYUIp1QD+BmBvhaB0qsJIsciH2CxHiLmuYG2ssLjqtJn8QOzdwWvpA39f3KKUahQVhk2lVIP4noEj+3yk3LYM5y1IlQkVBlhRIZzNJJmDhLVUYEWF7/OMHb5SbFDGdsj/JnC8uFUp1Sg0YCmlfIG/SYEptxZLgGMVRoslfnBX4Wwpk+1mxWTVq+OTPJlnx1/Dvym4rJRqMBWGTKVUA/kbA/GnfaRcvjg7SRWr0nl90zVXU4TLBS6q8E0mq17FBfYEi9t3Aw+G25VSjUMDllIKoF/gT+OCKbcWa7Iq1mJ/9o/PmeWHn3b16mkf/CAPfpJgDZZSqkFVGC6VUg3mswYGtnnl12JVqmLB7FWxKnzLGXOxVL5zcLLq1aDA80H1ahvBLvlKqQamAUsplTck8EdJMAXriIpMVsXq9aGlQki5UHMxRTjd6tVTPkjwVD/B7D5VpdQCUGGoVEo1oL8wcPRpDxkuExEqVbFmay3WbAeslQJLKjz4ZNWrIwIvBz/3d9GDnZVSaMBSShUbEfgFD8wjZSo61VSxZmt391l62IrVq1OTVK9c4GEPAdLAL4aalVINqsIwqZRqUN8Evn5Iis7TK3LWgtEKoWNVma+7ULNZwVrtw6IKD7x9kurVDg+GBAN8CjgQbldKNSYNWEqpUn7ZQHKrj2TCLQRB59UKo0e3D20VQstUVchy0/baCmHwkAVnKnzzfoEdwcL2l4E/DrcrpRpXhSFSKdXAjgr8n4RgniwzfdZvQbxC+JiN3d1nMLMBwV2D5apXPrCjwggpwA+8sW0ZPkowRaiUUoAGLKVUeZ8Dtu/yx45+KSLA4QrTZ93+zO3uPltThNdUCIEvWJUPuX7Wh+PBE/oC8HBxq1Kq0WnAUkqV4wIfBDLf80pPFcZNUMkqxQDLKwSYqZiNgNUh5deKZYBnK4THAYEng4XtR4GPhduVUqrM0KiUUgC8CPxmXDCPlZkqPGKVDz5LfXDCF2vEVbm5vVJ22ZAKX8zxgQc98IIv/xAwHOqilFIasJRSk/qsE4m8sNeHwyWS1KiB02VGEosgZE3XTFewIsDlZZ7XiIG9ZX4egD4fTgVP5K/RPa+UUmVUGEaUUgoAb8WatfdblsVDnim5kvuoDWUKXCyvUCmq1kwHrFUVKms7rfI/y3mBpz2IxWJcesUVfxVuV0qpPA1YSqlJdXR2ti5bsZKECI+WSB9Z4FiZNUtRmbktG2boYbikzAOdMbC/zKhYMDXIitWX0tbeviTcRyml8soMJUopVUDkkkVLlrJmzWqe9+Fgiem1E1b5I3R6SvSfClPmcS+ERektJAR4yi4f4nb4cEZgw2uvpbW9HSPWJeE+SimVpwFLKVWN1bFoRO65931Eo1Ee8s2EReBCsDFnKd3lUkuVZnKKcJlANHwReNmCc2WC3BmBbR4sWtTLbW95EwC+YXVxL6WUGldmOFRKqXHGmNWtrS2mp6ebd7zzbSRFKHVW4aAFAyVCSotMb0+smQxYpbZmyAA7ykxxesD3PBBjeP+976O7swMAI6IVLKVUWRqwlFIVbdiwoVVEFrW2tAJww5bNrF+/jpf8iWcVCnCozDTbdKtYM2VFiefRV2Fbhu0enBN4/RtuYdUlq4jFYti2LaAVLKVUeRqwlFIV+U7LKoDW1mYAjDHc/b73EI1EeMSfeFdhygTrscK6S1SOqjVTFSwb6Aw9SL+B50s8XwjuGtwhwdTg7Xe8eex6W2uzEWT1eE+llCpWZlhRSqmAsdzVAK0tLWPXuru7uPNtdzIiQqmzCo/ZkAlNFY5/9dTNVMDqlIlbRvywTMVNgO974Au89313E4lExtpaW1sxmItvvfXWcrs9KKUanAYspVRFVu5uudbW4oh0401bWLVqJbt9OBFKKB5wODS6RKX83lPVKhWEpqIj9AD7LTgZTlw5u3Ibim553Q2suXR1UVtLSzOAPTSUubioQSmlcjRgKaUqs4K1Rq1twRTh2GXL4r333I1tWTyU2x+q0HkLBkPhJXaBCalMBpqyWMHHKeDpMgvb4wJP+oaO9nbe9vY7w8205cKm62RXF7copVRAA5ZSqiLJ3S3X2jxxkm/p0iW86c1vol+CxeCFBDgYmn4rk1fasToAABBJSURBVGcmNVNThIXbM2yvsLD9YQ+yIrz7vXfR1NQUbh6bLjViLgk1KaUUoAFLKTUZY1Y7EUei0fE1SIXedNsbWbp0CTskWBReKGXg1YJUdaFThDMWsHIPcMIE+16V8pIPhwQ2XHsNV175mnAzMD5dqls1KKXKKTPEKKVUnlnd3tpSdpbOtm3ee8/diMBD3sQQdMKCZO6r7XDjFE3zy2kmmMp8skwpLQVs9Q3NTU286653hpvHtAVrsPCNWV3UoJRSORqwlFJlrb711iZElhXeQVjKqlUruemWmzgpsLvE3lj7c1OFpWtgkyub7qaoW+BZG4bKPOBjHoyK8M673kFbW1u4eUysKYZlWWJAK1hKqZI0YCmlyuoaHV0J0BK6g7CUO996O11dnTzhG+KhUlPCwGkLWi+wBDUTU4RNBGvAdpcZ9V4VeN6H9Zet5/rrrws3FzHG0NLSbIA14TallAINWEqpClyP1QBtk1SwAKLRKO+5+y6yIvywxKaiR+zgyJwys3MVzUTAusoL9rwq8dQQ4FEvmO58z913Yao4Xbo9CJ0rmbkCm1KqjmjAUkqVZeXvIKyiggVw2eWXsXrNal7wYSCUhjzgmAWLSyWcKskFJqwIwWB3ukwUesUPFui/7sYt9PR0h5tLylX1ItfeeONF4TallNKApZQqzwQVrJbcMTmTMcZw5523I8C2EkGq34JmmXrJZ7oVrGs9eK5M6UyAp32IRCK86bY3hpvLas0tdPdc95JQk1JKacBSSpUnBPs8VTNFmLfm0tWsv2wdL+aqQoUEOG7BihLhq5KpBrJCl/lw3kA23JDzsg/9Are8/uaKC9vD8puNGt+sLmpQSik0YCmlKjDIatu2y+6BVc5bbn8zEBw3E5Yx4AI9UyhHXWgFa7nACoFDFUa6Z32IOA5veOMt4aaKWvKbjVq62ahSaqIKw45SSrG6tbXFVLPou9CqVSvp6urkgJiSoeiUBcs9aCvVWMFUui/+/9u7uxip7vOO47/nzLK7s7N4oTgQ3pcXETDUxd4YjGunbt3EYBP1JcGOE1mR0t5F6m16l960Uqr6oq2qSr6o1KpS27SRY9dOrTpJKTZeB1gHWAE25mXB5mUXWJbd2VmWmXOeXpyZ3dmzM7Pvqp35fiQkdJ4/GO3F0c//53+ev0tPhtIvarzlsh7fN7hl6xal09Nrg5aM7WB51D6xAgAELABVdHR0LJK0qhQkZsLMtOPXt2vYXdcrpCKX1JOSthXiLwunMrN4F8+72luIRzIM1/jD54v/7e07HphYmIZ0ullm5m7sYAGYjIAFoKJ8KrVGUjDdLwiTtu/YLkk6X6FNKMXBpzeQthek5ilC1kxahG0uPVOIL5o+PcUb7kIkBWbatm1rsjQlM1NLOi15/CEAAJSb4vUDoF5ZaO3S+NdyM7Vu3Vo1LlqkT2qkoo9TUsGkHaHUVGNdyVRLMi7tC+NLnQ8lLppOCiVdkbRm3doZtwdLMq1pEztYACogYAGoKAqi9dL4WaOZSqVSWt++Xn1e/Qs+l3Q+JS1y6YGw+lU6Nbp8Y5olPVM81/V+jetwSvpcKri0ceOGZGnaWlsyknvzjt27VyRrAOobAQtARebWLo1/LTcbGzZuUCSpp0qbUJIGLT70nva4XdiQXKDptQh/qxC3B29a9etwyl0o/ps2bpp9wMoU54OlwpBdLAATTOM1BKAemcetr1KImI2HHt4pM9PxGgFLiq/RuWvxgff2MFkdVy1grfX4V6SpW4NSPCai201tbW3avHlTsjxtY+fTzNrLnwMAAQtARZFF7UEQeHNTU7I0bUuXLtED27fpikvXaqSeSHGrUJKWR5PHN0y1g/VwMZSdDKT+KVqDUnyp8113PfrYbgXB7F+DmeLunhfDKACUzP7NAuBXmrm1Z1pmPgMr6cknvyRJOhhWD0hSfGaqt/hGWp3Y8ar1L0hJut/jrwZ/WeU6nHIjkt6NTM3Nzdq9+5FkeUbGdrDc2sufAwABC8AkBw4cSMm0tnUO7cGStevW6pFdX1Sva8pWYU9KGjVpcZUkVulxuvjwUCr+MnAqb4fx7tXefV+Z0/kySWpJN0uS3OJLsQGghIAFYJIzPT2rJKUymUyyNCt79z2t1kxG70Tx5PRqQo1/VVi+a1WrRdimeN5VX61trqLTUfxrzZrV2jXH3StJCoJALem0m9SerAGobwQsAJMExRlYLbOcgZWUybTohW99Q5FMr4fScHJBmQGTbgYT52LVClhNLh2bRmuw16WfR6Z0ulnfevGFOZ29KpfJpM2MgAVgovl5wwD4lWKpuOWVaZ1bC63cps0bte+Zp5V16ZWCNJpcUKYnFQ8LHVNMWMmAZZIuBdXnbJX0u/Tj0BRJeuGbz2vp0qXJJbOWyWTkrszWXbuWJWsA6hcBC8AkURTvyLTO8YxS0hNfelyPP/GbuunSq4V4XEIleUlDZS2/at2/FcnEVcGQS6+EphF3ff25r2nLF7Ykl8xJ6ZxaYxhwDgvAGAIWgEksmPsMrErMTM/u36eOjod11aU3CvGIhkoaffwi6GotwozXPth+V9IroTTkrv1ffVYPdzyUXDJnpVENFoTtEysA6hkBC8Ak5r7ezDzdHH8lN5/MTF878Afaum2rLrr0P1US0qhNHbAu13iDFSS9Vojbg7/z1G/r8SceSy6ZFy3FUQ0Rs7AAlKnxegJQryK3DZmW9JxnYFUTBIGe/eozyrS2qjuS3q+yjXUr8YZKBqxaZ69+GkpXXfrcihX68leeSpbnTemuRjNrn1AAUNcIWACSAjOtGxuiuUDujt7T+s1blEqlbh0Kx+8GLFcKVDONee9F0geRlG7J3Pj8mnWKogp/+TwpzcKSMwsLwDgCFoAJOjo6VkhqnO8D7km53IgaGhq0ct26PzXpzk9C+a3kFlVRtRZhJR9E0ntx2/FM++bNPzIz5XIjiVXzJ5VKqbm5ySURsACMIWABmCDvDeul8bNFC2V4OJ6GtWTpisMufb0g+WuhvNb4hqkC1hWX/juUm9QnaV9DY9NZScouYMCSpNZMi5nZhuRzAPWLgAVgoiAe0TDfXxAmZYfj0NNk+UuSfirpe3dc9l+FyUFqOi3C2y69VpBH0qhL+yVdCgL1SONhbqFkMi1y97bdu3ffl6wBqE8ELAATmLxNkpqbmpKleTWcG5GZ3ezq6soVH70k6V96XOpMfFk4VYtw0KVXxne/XpB0VJI8DC5JcTtyITU3xz+rbKGwJFECUKcIWAAmiKRFkhSkFvb1MJwd9sj9Ytkjl/THkk4eiaRzZefSawWs2y79MJQPukzSdyX9uFQLG61HkoazpQy3MAKLf1ZBEDQkSgDq1MK+QQF85gRxUJFNqzE3O/lCQffyeTPpUqKUk/T7Jt1+s8ah95KbLv2wIM/G6/5I0t+X1091dvabLJvNLWzAKo2z8ChauB8agM8UAhaACTzwjyRpKLtw55bu3Bkq/fbD8udFF116vnTo/a4q72Bdd+nfC/KR+PE3Jf1DWXlMJD8zMDjo7lOktTkYGsrKzO41SZeTNQD1iYAFYIJQOi5JAwN3kqV5c/NWvyTJFR1OlEreUvHQ+3+WXadTikjnojhcjcYD2/9Q0r8WS5OY+7v5ewUbGsomS/Pm9sCgu/uprq6uWrNPAdQRAhaACU4dPXrdZOc+uXotWqhdn+t9NyTJU4VCZ7JW5iVJLxdHL0iS3OOp76+HUiQNSHpK0qtlf2YyC96RpGt9N5OVeXFncEjZ4WEz6WCyBqB+EbAATOLyl3O5u0Ff361kac6GssO6erVXJr16/PjxgWS9jCs+tP5Gacr7RZcOhZJJF1x6VNLbZesryiwK3pBZ/9mzFxakTXj+QnyMLPLw5UQJQB0jYAGY7F7DP5o0evL0mXkPJWc+OCdJigL9ZaJUSUHSNySdKnvWWQxXZ8ueVdXZ2Tki978dymbtkyvXk+U5yeVG9NH5i5GZHezu6vogWQdQvwhYACY5efLdvsj1/Rs3+q20QzMfrvXe0LkLPZLp9e4jR2q1B8tlJf1u8fe9ituCN8bLUwsXpf7GzPqOHDsejY7WmhU/M0e7TiqKPIqi4E+SNQD1jYAFoKJli1teMtPxY7/s9t7euZ9fyg7n9O57XZGZ9aUK+e8k61O4LumvJP2HpBlPDT3V2dmvSC+O3rtnh3/RpTBMTDKdhRPdZ3Tl2nW5+w+6uzq7k3UA9S2VfAAAktTT0xN9bvWqn5jsuUsfX2ldtmypLW7NJJdNy+BQVm/97O1odHQ07+a/d6Kr63RyzTS8pfgg+ay+1Ou9duX8ilWrlc3mnrx167avW7vKgmDm/4/p7uo+/aFOnT4ryX/0hQ3t3z19+vT89lEBfOYRsABU1Xf16uDKtWtejyJ/vqfn49ZCIdTy5fcrKA7WnIq766MLPXrn8NEoX8jfdfO93UePHkqum4FZhauS3qtX/nf5ytV3h3O5L1+6fDVauqTNMjO41Ho4l9Ohw0f8Ys/HJunNcCR34ODBg4XkOgCY3lsSQF178MHHlmtR4Z9kerqpqTHasnlDsGnDerW0VL4QOp/P69LlKzp7vscHBu6YmZ0omH/71JEjJ5Jr/z/8xiOPPCfZ37nr/tWrPq9NG9dr9coVYxPZy7m7+vsH9OG5i7p0+ROPosgD6c9OdB39c42P6AKACSa/TQCgsuDBjl3fMbPvuXyzJLWk075s2RJrbGxUygLl83ndHhzUnTtD7u5m0g25/2Dp4sxff9p2erbv2fNrQT78CzP7ttybGxqCaElbW3DffYsVWKAoipTLjejmrX4vhGHpXfmmKfr+iWPHjkz4ywAggYAFYKaCB7/46H6573f542baVl40swvu/r5k/7bIC69+2qeb79y5c4mnGl90014zPeSulWXle5IdNfnhyFP/zGF2ANNFwAIwJ3v27EkPSmkVCo2FxsbhDw8fHrto8LNo586dS+42NqYyYVhYvHjx8Kdt5w0AAAAAAAAAAAAAAAAAAAAAAAAAAAAAAAAAAAAAAAAAAAAAAAAAAAAAAAAAAAAAAAAAAAAAAAAAAAAAAAAAAAAAAAAAAAAAAAAAAAAAAAAAAAAAAAAAAAAAAAAAAAAAAAAAAAAAAAAAAAAAAAAAAAAAAAAAAAAAAAAAAAAAAAAAAAAAAAAAAAAAAAAAAAAAAAAAAAAAAAAAAAAAAAAAAAAAAAAAAAAAAAAAAAAAAAAAAAAAAAAAAAAAAAAAAAAAAAAAAAAAAAAAAAAAAAAAAAAAAAAAAAAAAAAAAAAAAAAAAAAAAAAAAAAAAAAAAAAAAAAAAAAAAAAAAAAAAAAAAAAAAAAAAAAAAAAAAAAAAAAAAAAAAAAAAAAAAAAAAAAAAAAAAAAAAAAAAAAAAAAAAAAAAAAAAAAAAAAAAAAAAAAAAAAAAAAAAAAAAAAAAAAAAAAAAAAAAAAAAAAAAAAAAAAAAAAAAAAAAAAAAAAAAAAAAAAAAAAAAAAAAAAAAAAAAAAAAAAAAAAAAAAAAAAAAAAAAAAAAAAAAAAAAAAAAAAAAAAAAAAAAAAAAAAAAAAAAAAAAAAAAAAAAGD2/g+LDHtQyo9eDQAAAABJRU5ErkJggg==;connectable=0;allowArrows=0;rotation=60;fillOpacity=30;" vertex="1" parent="zFDbxtlzNtu9064vAHm8-15">
          <mxGeometry x="34.772413359521664" y="34.772413359521664" width="190" height="190" as="geometry" />
        </mxCell>
        <mxCell id="zFDbxtlzNtu9064vAHm8-14" value="" style="group" vertex="1" connectable="0" parent="zFDbxtlzNtu9064vAHm8-15">
          <mxGeometry x="24.772413359521664" y="34.772413359521664" width="246" height="162" as="geometry" />
        </mxCell>
        <mxCell id="zFDbxtlzNtu9064vAHm8-6" value="" style="endArrow=classic;html=1;rounded=0;startArrow=oval;startFill=1;" edge="1" parent="zFDbxtlzNtu9064vAHm8-14">
          <mxGeometry width="50" height="50" relative="1" as="geometry">
            <mxPoint x="70" y="114" as="sourcePoint" />
            <mxPoint x="180" y="54" as="targetPoint" />
          </mxGeometry>
        </mxCell>
        <mxCell id="zFDbxtlzNtu9064vAHm8-7" value="" style="endArrow=classic;html=1;rounded=0;startArrow=oval;startFill=1;" edge="1" parent="zFDbxtlzNtu9064vAHm8-14">
          <mxGeometry width="50" height="50" relative="1" as="geometry">
            <mxPoint x="70" y="114" as="sourcePoint" />
            <mxPoint x="20" y="24" as="targetPoint" />
          </mxGeometry>
        </mxCell>
        <mxCell id="zFDbxtlzNtu9064vAHm8-8" value="\(x (\hat{\imath})\)" style="text;html=1;align=center;verticalAlign=middle;resizable=0;points=[];autosize=1;strokeColor=none;fillColor=none;" vertex="1" parent="zFDbxtlzNtu9064vAHm8-14">
          <mxGeometry x="135" y="34" width="111" height="26" as="geometry" />
        </mxCell>
        <mxCell id="zFDbxtlzNtu9064vAHm8-9" value="\(y (\hat{\jmath})\)" style="text;html=1;align=center;verticalAlign=middle;resizable=0;points=[];autosize=1;strokeColor=none;fillColor=none;" vertex="1" parent="zFDbxtlzNtu9064vAHm8-14">
          <mxGeometry x="-35" y="2" width="111" height="26" as="geometry" />
        </mxCell>
        <mxCell id="zFDbxtlzNtu9064vAHm8-10" value="" style="endArrow=none;dashed=1;html=1;dashPattern=1 3;strokeWidth=2;rounded=0;" edge="1" parent="zFDbxtlzNtu9064vAHm8-14">
          <mxGeometry width="50" height="50" relative="1" as="geometry">
            <mxPoint x="70" y="114" as="sourcePoint" />
            <mxPoint x="180.0000000000001" y="112.70588235294122" as="targetPoint" />
          </mxGeometry>
        </mxCell>
        <mxCell id="zFDbxtlzNtu9064vAHm8-12" value="" style="verticalLabelPosition=bottom;verticalAlign=top;html=1;shape=mxgraph.basic.arc;startAngle=0.16757477191089495;endAngle=0.24798548805816875;fillColor=none;connectable=0;allowArrows=0;" vertex="1" parent="zFDbxtlzNtu9064vAHm8-14">
          <mxGeometry x="10" y="62" width="120" height="100" as="geometry" />
        </mxCell>
        <mxCell id="zFDbxtlzNtu9064vAHm8-13" value="\(\psi\)" style="text;html=1;align=center;verticalAlign=middle;resizable=0;points=[];autosize=1;strokeColor=none;fillColor=none;" vertex="1" parent="zFDbxtlzNtu9064vAHm8-14">
          <mxGeometry x="110" y="80" width="60" height="30" as="geometry" />
        </mxCell>
      </root>
    </mxGraphModel>
  </diagram>
</mxfile>
